<mxfile host="Electron" modified="2024-09-27T07:11:39.778Z" agent="Mozilla/5.0 (Windows NT 10.0; Win64; x64) AppleWebKit/537.36 (KHTML, like Gecko) draw.io/24.2.5 Chrome/120.0.6099.109 Electron/28.1.0 Safari/537.36" etag="d-78VB2JKNi_uDV_pO26" version="24.2.5" type="device" pages="4">
  <diagram name="Страница — 1" id="Q-D-weQLt4dVRzCU2N4n">
    <mxGraphModel dx="780" dy="504" grid="1" gridSize="10" guides="1" tooltips="1" connect="1" arrows="1" fold="1" page="1" pageScale="1" pageWidth="827" pageHeight="1169" math="0" shadow="0">
      <root>
        <mxCell id="0" />
        <mxCell id="1" parent="0" />
        <mxCell id="fvfQfKX5nGl6JzSHI2ud-5" style="edgeStyle=orthogonalEdgeStyle;rounded=0;orthogonalLoop=1;jettySize=auto;html=1;exitX=1;exitY=0.5;exitDx=0;exitDy=0;entryX=0;entryY=0.5;entryDx=0;entryDy=0;" parent="1" source="fvfQfKX5nGl6JzSHI2ud-1" target="fvfQfKX5nGl6JzSHI2ud-4" edge="1">
          <mxGeometry relative="1" as="geometry" />
        </mxCell>
        <mxCell id="fvfQfKX5nGl6JzSHI2ud-6" value="m" style="edgeLabel;html=1;align=center;verticalAlign=middle;resizable=0;points=[];" parent="fvfQfKX5nGl6JzSHI2ud-5" vertex="1" connectable="0">
          <mxGeometry x="-0.0381" y="4" relative="1" as="geometry">
            <mxPoint y="-11" as="offset" />
          </mxGeometry>
        </mxCell>
        <mxCell id="fvfQfKX5nGl6JzSHI2ud-8" style="edgeStyle=orthogonalEdgeStyle;curved=1;rounded=0;orthogonalLoop=1;jettySize=auto;html=1;exitX=0.5;exitY=1;exitDx=0;exitDy=0;entryX=0.5;entryY=1;entryDx=0;entryDy=0;strokeColor=default;align=center;verticalAlign=middle;fontFamily=Helvetica;fontSize=11;fontColor=default;labelBackgroundColor=default;endArrow=classic;" parent="1" source="fvfQfKX5nGl6JzSHI2ud-1" target="fvfQfKX5nGl6JzSHI2ud-4" edge="1">
          <mxGeometry relative="1" as="geometry" />
        </mxCell>
        <mxCell id="fvfQfKX5nGl6JzSHI2ud-9" value="e" style="edgeLabel;html=1;align=center;verticalAlign=middle;resizable=0;points=[];fontFamily=Helvetica;fontSize=11;fontColor=default;labelBackgroundColor=default;" parent="fvfQfKX5nGl6JzSHI2ud-8" vertex="1" connectable="0">
          <mxGeometry x="0.0238" y="-4" relative="1" as="geometry">
            <mxPoint as="offset" />
          </mxGeometry>
        </mxCell>
        <mxCell id="fvfQfKX5nGl6JzSHI2ud-1" value="" style="ellipse;whiteSpace=wrap;html=1;aspect=fixed;" parent="1" vertex="1">
          <mxGeometry x="50" y="300" width="30" height="30" as="geometry" />
        </mxCell>
        <mxCell id="fvfQfKX5nGl6JzSHI2ud-2" value="" style="ellipse;whiteSpace=wrap;html=1;aspect=fixed;" parent="1" vertex="1">
          <mxGeometry x="1000" y="290" width="50" height="50" as="geometry" />
        </mxCell>
        <mxCell id="fvfQfKX5nGl6JzSHI2ud-3" value="" style="ellipse;whiteSpace=wrap;html=1;aspect=fixed;" parent="1" vertex="1">
          <mxGeometry x="1010" y="300" width="30" height="30" as="geometry" />
        </mxCell>
        <mxCell id="fvfQfKX5nGl6JzSHI2ud-86" style="edgeStyle=orthogonalEdgeStyle;curved=1;rounded=0;orthogonalLoop=1;jettySize=auto;html=1;exitX=1;exitY=0.5;exitDx=0;exitDy=0;entryX=0.5;entryY=1;entryDx=0;entryDy=0;strokeColor=default;align=center;verticalAlign=middle;fontFamily=Helvetica;fontSize=11;fontColor=default;labelBackgroundColor=default;endArrow=classic;" parent="1" source="fvfQfKX5nGl6JzSHI2ud-4" target="fvfQfKX5nGl6JzSHI2ud-85" edge="1">
          <mxGeometry relative="1" as="geometry" />
        </mxCell>
        <mxCell id="fvfQfKX5nGl6JzSHI2ud-87" value="e" style="edgeLabel;html=1;align=center;verticalAlign=middle;resizable=0;points=[];fontFamily=Helvetica;fontSize=11;fontColor=default;labelBackgroundColor=default;" parent="fvfQfKX5nGl6JzSHI2ud-86" vertex="1" connectable="0">
          <mxGeometry x="0.2267" y="4" relative="1" as="geometry">
            <mxPoint x="-11" as="offset" />
          </mxGeometry>
        </mxCell>
        <mxCell id="fvfQfKX5nGl6JzSHI2ud-102" style="edgeStyle=orthogonalEdgeStyle;curved=1;rounded=0;orthogonalLoop=1;jettySize=auto;html=1;exitX=1;exitY=0.5;exitDx=0;exitDy=0;entryX=0.5;entryY=0;entryDx=0;entryDy=0;strokeColor=default;align=center;verticalAlign=middle;fontFamily=Helvetica;fontSize=11;fontColor=default;labelBackgroundColor=default;endArrow=classic;" parent="1" source="fvfQfKX5nGl6JzSHI2ud-4" target="fvfQfKX5nGl6JzSHI2ud-58" edge="1">
          <mxGeometry relative="1" as="geometry" />
        </mxCell>
        <mxCell id="fvfQfKX5nGl6JzSHI2ud-103" value="e" style="edgeLabel;html=1;align=center;verticalAlign=middle;resizable=0;points=[];fontFamily=Helvetica;fontSize=11;fontColor=default;labelBackgroundColor=default;" parent="fvfQfKX5nGl6JzSHI2ud-102" vertex="1" connectable="0">
          <mxGeometry x="0.266" y="-1" relative="1" as="geometry">
            <mxPoint as="offset" />
          </mxGeometry>
        </mxCell>
        <mxCell id="fvfQfKX5nGl6JzSHI2ud-4" value="" style="ellipse;whiteSpace=wrap;html=1;aspect=fixed;" parent="1" vertex="1">
          <mxGeometry x="150" y="300" width="30" height="30" as="geometry" />
        </mxCell>
        <mxCell id="fvfQfKX5nGl6JzSHI2ud-21" style="edgeStyle=orthogonalEdgeStyle;rounded=0;orthogonalLoop=1;jettySize=auto;html=1;exitX=1;exitY=0.5;exitDx=0;exitDy=0;entryX=0;entryY=0.5;entryDx=0;entryDy=0;" parent="1" source="fvfQfKX5nGl6JzSHI2ud-25" target="fvfQfKX5nGl6JzSHI2ud-26" edge="1">
          <mxGeometry relative="1" as="geometry" />
        </mxCell>
        <mxCell id="fvfQfKX5nGl6JzSHI2ud-22" value="m" style="edgeLabel;html=1;align=center;verticalAlign=middle;resizable=0;points=[];" parent="fvfQfKX5nGl6JzSHI2ud-21" vertex="1" connectable="0">
          <mxGeometry x="-0.0381" y="4" relative="1" as="geometry">
            <mxPoint y="-11" as="offset" />
          </mxGeometry>
        </mxCell>
        <mxCell id="fvfQfKX5nGl6JzSHI2ud-23" style="edgeStyle=orthogonalEdgeStyle;curved=1;rounded=0;orthogonalLoop=1;jettySize=auto;html=1;exitX=0.5;exitY=1;exitDx=0;exitDy=0;entryX=0.5;entryY=1;entryDx=0;entryDy=0;strokeColor=default;align=center;verticalAlign=middle;fontFamily=Helvetica;fontSize=11;fontColor=default;labelBackgroundColor=default;endArrow=classic;" parent="1" source="fvfQfKX5nGl6JzSHI2ud-25" target="fvfQfKX5nGl6JzSHI2ud-26" edge="1">
          <mxGeometry relative="1" as="geometry" />
        </mxCell>
        <mxCell id="fvfQfKX5nGl6JzSHI2ud-24" value="e" style="edgeLabel;html=1;align=center;verticalAlign=middle;resizable=0;points=[];fontFamily=Helvetica;fontSize=11;fontColor=default;labelBackgroundColor=default;" parent="fvfQfKX5nGl6JzSHI2ud-23" vertex="1" connectable="0">
          <mxGeometry x="0.0238" y="-4" relative="1" as="geometry">
            <mxPoint as="offset" />
          </mxGeometry>
        </mxCell>
        <mxCell id="fvfQfKX5nGl6JzSHI2ud-25" value="" style="ellipse;whiteSpace=wrap;html=1;aspect=fixed;" parent="1" vertex="1">
          <mxGeometry x="40" y="580" width="30" height="30" as="geometry" />
        </mxCell>
        <mxCell id="fvfQfKX5nGl6JzSHI2ud-26" value="" style="ellipse;whiteSpace=wrap;html=1;aspect=fixed;" parent="1" vertex="1">
          <mxGeometry x="140" y="580" width="30" height="30" as="geometry" />
        </mxCell>
        <mxCell id="fvfQfKX5nGl6JzSHI2ud-27" style="edgeStyle=orthogonalEdgeStyle;rounded=0;orthogonalLoop=1;jettySize=auto;html=1;exitX=1;exitY=0.5;exitDx=0;exitDy=0;entryX=0;entryY=0.5;entryDx=0;entryDy=0;" parent="1" source="fvfQfKX5nGl6JzSHI2ud-31" target="fvfQfKX5nGl6JzSHI2ud-101" edge="1">
          <mxGeometry relative="1" as="geometry">
            <mxPoint x="610" y="235" as="targetPoint" />
          </mxGeometry>
        </mxCell>
        <mxCell id="fvfQfKX5nGl6JzSHI2ud-33" value="t" style="edgeLabel;html=1;align=center;verticalAlign=middle;resizable=0;points=[];fontFamily=Helvetica;fontSize=11;fontColor=default;labelBackgroundColor=default;" parent="fvfQfKX5nGl6JzSHI2ud-27" vertex="1" connectable="0">
          <mxGeometry x="0.1048" y="1" relative="1" as="geometry">
            <mxPoint x="-9" y="-9" as="offset" />
          </mxGeometry>
        </mxCell>
        <mxCell id="fvfQfKX5nGl6JzSHI2ud-31" value="" style="ellipse;whiteSpace=wrap;html=1;aspect=fixed;" parent="1" vertex="1">
          <mxGeometry x="510" y="220" width="30" height="30" as="geometry" />
        </mxCell>
        <mxCell id="fvfQfKX5nGl6JzSHI2ud-34" style="edgeStyle=orthogonalEdgeStyle;curved=1;rounded=0;orthogonalLoop=1;jettySize=auto;html=1;exitX=1;exitY=0.5;exitDx=0;exitDy=0;strokeColor=default;align=center;verticalAlign=middle;fontFamily=Helvetica;fontSize=11;fontColor=default;labelBackgroundColor=default;endArrow=classic;" parent="1" source="fvfQfKX5nGl6JzSHI2ud-35" target="fvfQfKX5nGl6JzSHI2ud-38" edge="1">
          <mxGeometry relative="1" as="geometry" />
        </mxCell>
        <mxCell id="fvfQfKX5nGl6JzSHI2ud-44" value="d" style="edgeLabel;html=1;align=center;verticalAlign=middle;resizable=0;points=[];fontFamily=Helvetica;fontSize=11;fontColor=default;labelBackgroundColor=default;" parent="fvfQfKX5nGl6JzSHI2ud-34" vertex="1" connectable="0">
          <mxGeometry x="-0.125" y="-4" relative="1" as="geometry">
            <mxPoint x="5" y="-19" as="offset" />
          </mxGeometry>
        </mxCell>
        <mxCell id="fvfQfKX5nGl6JzSHI2ud-42" value="" style="edgeStyle=orthogonalEdgeStyle;curved=1;rounded=0;orthogonalLoop=1;jettySize=auto;html=1;strokeColor=default;align=center;verticalAlign=middle;fontFamily=Helvetica;fontSize=11;fontColor=default;labelBackgroundColor=default;endArrow=none;startArrow=classic;startFill=1;endFill=0;" parent="1" source="fvfQfKX5nGl6JzSHI2ud-35" target="fvfQfKX5nGl6JzSHI2ud-41" edge="1">
          <mxGeometry relative="1" as="geometry" />
        </mxCell>
        <mxCell id="fvfQfKX5nGl6JzSHI2ud-43" value="e" style="edgeLabel;html=1;align=center;verticalAlign=middle;resizable=0;points=[];fontFamily=Helvetica;fontSize=11;fontColor=default;labelBackgroundColor=default;" parent="fvfQfKX5nGl6JzSHI2ud-42" vertex="1" connectable="0">
          <mxGeometry x="0.1143" y="-3" relative="1" as="geometry">
            <mxPoint y="-12" as="offset" />
          </mxGeometry>
        </mxCell>
        <mxCell id="fvfQfKX5nGl6JzSHI2ud-35" value="" style="ellipse;whiteSpace=wrap;html=1;aspect=fixed;" parent="1" vertex="1">
          <mxGeometry x="130" y="680" width="30" height="30" as="geometry" />
        </mxCell>
        <mxCell id="fvfQfKX5nGl6JzSHI2ud-37" value="" style="edgeStyle=orthogonalEdgeStyle;curved=1;rounded=0;orthogonalLoop=1;jettySize=auto;html=1;strokeColor=default;align=center;verticalAlign=middle;fontFamily=Helvetica;fontSize=11;fontColor=default;labelBackgroundColor=default;endArrow=classic;" parent="1" source="fvfQfKX5nGl6JzSHI2ud-38" target="fvfQfKX5nGl6JzSHI2ud-39" edge="1">
          <mxGeometry relative="1" as="geometry" />
        </mxCell>
        <mxCell id="fvfQfKX5nGl6JzSHI2ud-46" value="e" style="edgeLabel;html=1;align=center;verticalAlign=middle;resizable=0;points=[];fontFamily=Helvetica;fontSize=11;fontColor=default;labelBackgroundColor=default;" parent="fvfQfKX5nGl6JzSHI2ud-37" vertex="1" connectable="0">
          <mxGeometry x="-0.0667" y="4" relative="1" as="geometry">
            <mxPoint x="2" y="-11" as="offset" />
          </mxGeometry>
        </mxCell>
        <mxCell id="fvfQfKX5nGl6JzSHI2ud-40" style="edgeStyle=orthogonalEdgeStyle;curved=1;rounded=0;orthogonalLoop=1;jettySize=auto;html=1;exitX=0.5;exitY=0;exitDx=0;exitDy=0;entryX=0.5;entryY=0;entryDx=0;entryDy=0;strokeColor=default;align=center;verticalAlign=middle;fontFamily=Helvetica;fontSize=11;fontColor=default;labelBackgroundColor=default;endArrow=classic;" parent="1" source="fvfQfKX5nGl6JzSHI2ud-38" target="fvfQfKX5nGl6JzSHI2ud-35" edge="1">
          <mxGeometry relative="1" as="geometry" />
        </mxCell>
        <mxCell id="fvfQfKX5nGl6JzSHI2ud-45" value="e" style="edgeLabel;html=1;align=center;verticalAlign=middle;resizable=0;points=[];fontFamily=Helvetica;fontSize=11;fontColor=default;labelBackgroundColor=default;" parent="fvfQfKX5nGl6JzSHI2ud-40" vertex="1" connectable="0">
          <mxGeometry x="-0.0267" y="-4" relative="1" as="geometry">
            <mxPoint x="-2" as="offset" />
          </mxGeometry>
        </mxCell>
        <mxCell id="fvfQfKX5nGl6JzSHI2ud-38" value="" style="ellipse;whiteSpace=wrap;html=1;aspect=fixed;" parent="1" vertex="1">
          <mxGeometry x="240" y="680" width="30" height="30" as="geometry" />
        </mxCell>
        <mxCell id="fvfQfKX5nGl6JzSHI2ud-39" value="" style="ellipse;whiteSpace=wrap;html=1;aspect=fixed;" parent="1" vertex="1">
          <mxGeometry x="330" y="680" width="30" height="30" as="geometry" />
        </mxCell>
        <mxCell id="fvfQfKX5nGl6JzSHI2ud-41" value="" style="ellipse;whiteSpace=wrap;html=1;aspect=fixed;" parent="1" vertex="1">
          <mxGeometry x="30" y="680" width="30" height="30" as="geometry" />
        </mxCell>
        <mxCell id="fvfQfKX5nGl6JzSHI2ud-47" style="edgeStyle=orthogonalEdgeStyle;curved=1;rounded=0;orthogonalLoop=1;jettySize=auto;html=1;exitX=1;exitY=0.5;exitDx=0;exitDy=0;strokeColor=default;align=center;verticalAlign=middle;fontFamily=Helvetica;fontSize=11;fontColor=default;labelBackgroundColor=default;endArrow=classic;" parent="1" source="fvfQfKX5nGl6JzSHI2ud-51" target="fvfQfKX5nGl6JzSHI2ud-56" edge="1">
          <mxGeometry relative="1" as="geometry" />
        </mxCell>
        <mxCell id="fvfQfKX5nGl6JzSHI2ud-48" value="d" style="edgeLabel;html=1;align=center;verticalAlign=middle;resizable=0;points=[];fontFamily=Helvetica;fontSize=11;fontColor=default;labelBackgroundColor=default;" parent="fvfQfKX5nGl6JzSHI2ud-47" vertex="1" connectable="0">
          <mxGeometry x="-0.125" y="-4" relative="1" as="geometry">
            <mxPoint x="5" y="-19" as="offset" />
          </mxGeometry>
        </mxCell>
        <mxCell id="fvfQfKX5nGl6JzSHI2ud-49" value="" style="edgeStyle=orthogonalEdgeStyle;curved=1;rounded=0;orthogonalLoop=1;jettySize=auto;html=1;strokeColor=default;align=center;verticalAlign=middle;fontFamily=Helvetica;fontSize=11;fontColor=default;labelBackgroundColor=default;endArrow=none;startArrow=classic;startFill=1;endFill=0;" parent="1" source="fvfQfKX5nGl6JzSHI2ud-51" target="fvfQfKX5nGl6JzSHI2ud-58" edge="1">
          <mxGeometry relative="1" as="geometry" />
        </mxCell>
        <mxCell id="fvfQfKX5nGl6JzSHI2ud-50" value="e" style="edgeLabel;html=1;align=center;verticalAlign=middle;resizable=0;points=[];fontFamily=Helvetica;fontSize=11;fontColor=default;labelBackgroundColor=default;" parent="fvfQfKX5nGl6JzSHI2ud-49" vertex="1" connectable="0">
          <mxGeometry x="0.1143" y="-3" relative="1" as="geometry">
            <mxPoint y="-12" as="offset" />
          </mxGeometry>
        </mxCell>
        <mxCell id="fvfQfKX5nGl6JzSHI2ud-51" value="" style="ellipse;whiteSpace=wrap;html=1;aspect=fixed;" parent="1" vertex="1">
          <mxGeometry x="300" y="390" width="30" height="30" as="geometry" />
        </mxCell>
        <mxCell id="fvfQfKX5nGl6JzSHI2ud-52" value="" style="edgeStyle=orthogonalEdgeStyle;curved=1;rounded=0;orthogonalLoop=1;jettySize=auto;html=1;strokeColor=default;align=center;verticalAlign=middle;fontFamily=Helvetica;fontSize=11;fontColor=default;labelBackgroundColor=default;endArrow=classic;" parent="1" source="fvfQfKX5nGl6JzSHI2ud-56" target="fvfQfKX5nGl6JzSHI2ud-57" edge="1">
          <mxGeometry relative="1" as="geometry" />
        </mxCell>
        <mxCell id="fvfQfKX5nGl6JzSHI2ud-53" value="e" style="edgeLabel;html=1;align=center;verticalAlign=middle;resizable=0;points=[];fontFamily=Helvetica;fontSize=11;fontColor=default;labelBackgroundColor=default;" parent="fvfQfKX5nGl6JzSHI2ud-52" vertex="1" connectable="0">
          <mxGeometry x="-0.0667" y="4" relative="1" as="geometry">
            <mxPoint x="2" y="-11" as="offset" />
          </mxGeometry>
        </mxCell>
        <mxCell id="fvfQfKX5nGl6JzSHI2ud-54" style="edgeStyle=orthogonalEdgeStyle;curved=1;rounded=0;orthogonalLoop=1;jettySize=auto;html=1;exitX=0.5;exitY=0;exitDx=0;exitDy=0;entryX=0.5;entryY=0;entryDx=0;entryDy=0;strokeColor=default;align=center;verticalAlign=middle;fontFamily=Helvetica;fontSize=11;fontColor=default;labelBackgroundColor=default;endArrow=classic;" parent="1" source="fvfQfKX5nGl6JzSHI2ud-56" target="fvfQfKX5nGl6JzSHI2ud-51" edge="1">
          <mxGeometry relative="1" as="geometry" />
        </mxCell>
        <mxCell id="fvfQfKX5nGl6JzSHI2ud-55" value="e" style="edgeLabel;html=1;align=center;verticalAlign=middle;resizable=0;points=[];fontFamily=Helvetica;fontSize=11;fontColor=default;labelBackgroundColor=default;" parent="fvfQfKX5nGl6JzSHI2ud-54" vertex="1" connectable="0">
          <mxGeometry x="-0.0267" y="-4" relative="1" as="geometry">
            <mxPoint x="-2" as="offset" />
          </mxGeometry>
        </mxCell>
        <mxCell id="fvfQfKX5nGl6JzSHI2ud-56" value="" style="ellipse;whiteSpace=wrap;html=1;aspect=fixed;" parent="1" vertex="1">
          <mxGeometry x="410" y="390" width="30" height="30" as="geometry" />
        </mxCell>
        <mxCell id="fvfQfKX5nGl6JzSHI2ud-105" value="" style="edgeStyle=orthogonalEdgeStyle;curved=1;rounded=0;orthogonalLoop=1;jettySize=auto;html=1;strokeColor=default;align=center;verticalAlign=middle;fontFamily=Helvetica;fontSize=11;fontColor=default;labelBackgroundColor=default;endArrow=classic;entryX=0;entryY=0.5;entryDx=0;entryDy=0;" parent="1" source="fvfQfKX5nGl6JzSHI2ud-57" target="fvfQfKX5nGl6JzSHI2ud-118" edge="1">
          <mxGeometry relative="1" as="geometry">
            <mxPoint x="610" y="405" as="targetPoint" />
          </mxGeometry>
        </mxCell>
        <mxCell id="fvfQfKX5nGl6JzSHI2ud-106" value="t" style="edgeLabel;html=1;align=center;verticalAlign=middle;resizable=0;points=[];fontFamily=Helvetica;fontSize=11;fontColor=default;labelBackgroundColor=default;" parent="fvfQfKX5nGl6JzSHI2ud-105" vertex="1" connectable="0">
          <mxGeometry x="-0.2306" y="1" relative="1" as="geometry">
            <mxPoint x="9" y="-14" as="offset" />
          </mxGeometry>
        </mxCell>
        <mxCell id="fvfQfKX5nGl6JzSHI2ud-57" value="" style="ellipse;whiteSpace=wrap;html=1;aspect=fixed;" parent="1" vertex="1">
          <mxGeometry x="500" y="390" width="30" height="30" as="geometry" />
        </mxCell>
        <mxCell id="fvfQfKX5nGl6JzSHI2ud-59" style="edgeStyle=orthogonalEdgeStyle;curved=1;rounded=0;orthogonalLoop=1;jettySize=auto;html=1;exitX=0.5;exitY=1;exitDx=0;exitDy=0;entryX=0.5;entryY=1;entryDx=0;entryDy=0;strokeColor=default;align=center;verticalAlign=middle;fontFamily=Helvetica;fontSize=11;fontColor=default;labelBackgroundColor=default;endArrow=classic;" parent="1" source="fvfQfKX5nGl6JzSHI2ud-58" target="fvfQfKX5nGl6JzSHI2ud-57" edge="1">
          <mxGeometry relative="1" as="geometry" />
        </mxCell>
        <mxCell id="fvfQfKX5nGl6JzSHI2ud-60" value="e" style="edgeLabel;html=1;align=center;verticalAlign=middle;resizable=0;points=[];fontFamily=Helvetica;fontSize=11;fontColor=default;labelBackgroundColor=default;" parent="fvfQfKX5nGl6JzSHI2ud-59" vertex="1" connectable="0">
          <mxGeometry x="0.0353" y="-3" relative="1" as="geometry">
            <mxPoint y="7" as="offset" />
          </mxGeometry>
        </mxCell>
        <mxCell id="fvfQfKX5nGl6JzSHI2ud-58" value="" style="ellipse;whiteSpace=wrap;html=1;aspect=fixed;" parent="1" vertex="1">
          <mxGeometry x="200" y="390" width="30" height="30" as="geometry" />
        </mxCell>
        <mxCell id="fvfQfKX5nGl6JzSHI2ud-74" style="edgeStyle=orthogonalEdgeStyle;curved=1;rounded=0;orthogonalLoop=1;jettySize=auto;html=1;exitX=1;exitY=0.5;exitDx=0;exitDy=0;strokeColor=default;align=center;verticalAlign=middle;fontFamily=Helvetica;fontSize=11;fontColor=default;labelBackgroundColor=default;endArrow=classic;" parent="1" source="fvfQfKX5nGl6JzSHI2ud-78" target="fvfQfKX5nGl6JzSHI2ud-83" edge="1">
          <mxGeometry relative="1" as="geometry" />
        </mxCell>
        <mxCell id="fvfQfKX5nGl6JzSHI2ud-75" value="d" style="edgeLabel;html=1;align=center;verticalAlign=middle;resizable=0;points=[];fontFamily=Helvetica;fontSize=11;fontColor=default;labelBackgroundColor=default;" parent="fvfQfKX5nGl6JzSHI2ud-74" vertex="1" connectable="0">
          <mxGeometry x="-0.125" y="-4" relative="1" as="geometry">
            <mxPoint x="5" y="-19" as="offset" />
          </mxGeometry>
        </mxCell>
        <mxCell id="fvfQfKX5nGl6JzSHI2ud-76" value="" style="edgeStyle=orthogonalEdgeStyle;curved=1;rounded=0;orthogonalLoop=1;jettySize=auto;html=1;strokeColor=default;align=center;verticalAlign=middle;fontFamily=Helvetica;fontSize=11;fontColor=default;labelBackgroundColor=default;endArrow=none;startArrow=classic;startFill=1;endFill=0;" parent="1" source="fvfQfKX5nGl6JzSHI2ud-78" target="fvfQfKX5nGl6JzSHI2ud-85" edge="1">
          <mxGeometry relative="1" as="geometry" />
        </mxCell>
        <mxCell id="fvfQfKX5nGl6JzSHI2ud-77" value="e" style="edgeLabel;html=1;align=center;verticalAlign=middle;resizable=0;points=[];fontFamily=Helvetica;fontSize=11;fontColor=default;labelBackgroundColor=default;" parent="fvfQfKX5nGl6JzSHI2ud-76" vertex="1" connectable="0">
          <mxGeometry x="0.1143" y="-3" relative="1" as="geometry">
            <mxPoint y="-12" as="offset" />
          </mxGeometry>
        </mxCell>
        <mxCell id="fvfQfKX5nGl6JzSHI2ud-78" value="" style="ellipse;whiteSpace=wrap;html=1;aspect=fixed;" parent="1" vertex="1">
          <mxGeometry x="300" y="220" width="30" height="30" as="geometry" />
        </mxCell>
        <mxCell id="fvfQfKX5nGl6JzSHI2ud-79" value="" style="edgeStyle=orthogonalEdgeStyle;curved=1;rounded=0;orthogonalLoop=1;jettySize=auto;html=1;strokeColor=default;align=center;verticalAlign=middle;fontFamily=Helvetica;fontSize=11;fontColor=default;labelBackgroundColor=default;endArrow=classic;entryX=0;entryY=0.5;entryDx=0;entryDy=0;" parent="1" source="fvfQfKX5nGl6JzSHI2ud-83" target="fvfQfKX5nGl6JzSHI2ud-31" edge="1">
          <mxGeometry relative="1" as="geometry">
            <mxPoint x="500" y="235" as="targetPoint" />
          </mxGeometry>
        </mxCell>
        <mxCell id="fvfQfKX5nGl6JzSHI2ud-80" value="e" style="edgeLabel;html=1;align=center;verticalAlign=middle;resizable=0;points=[];fontFamily=Helvetica;fontSize=11;fontColor=default;labelBackgroundColor=default;" parent="fvfQfKX5nGl6JzSHI2ud-79" vertex="1" connectable="0">
          <mxGeometry x="-0.0667" y="4" relative="1" as="geometry">
            <mxPoint x="2" y="-11" as="offset" />
          </mxGeometry>
        </mxCell>
        <mxCell id="fvfQfKX5nGl6JzSHI2ud-81" style="edgeStyle=orthogonalEdgeStyle;curved=1;rounded=0;orthogonalLoop=1;jettySize=auto;html=1;exitX=0.5;exitY=0;exitDx=0;exitDy=0;entryX=0.5;entryY=0;entryDx=0;entryDy=0;strokeColor=default;align=center;verticalAlign=middle;fontFamily=Helvetica;fontSize=11;fontColor=default;labelBackgroundColor=default;endArrow=classic;" parent="1" source="fvfQfKX5nGl6JzSHI2ud-83" target="fvfQfKX5nGl6JzSHI2ud-78" edge="1">
          <mxGeometry relative="1" as="geometry" />
        </mxCell>
        <mxCell id="fvfQfKX5nGl6JzSHI2ud-82" value="e" style="edgeLabel;html=1;align=center;verticalAlign=middle;resizable=0;points=[];fontFamily=Helvetica;fontSize=11;fontColor=default;labelBackgroundColor=default;" parent="fvfQfKX5nGl6JzSHI2ud-81" vertex="1" connectable="0">
          <mxGeometry x="-0.0267" y="-4" relative="1" as="geometry">
            <mxPoint x="-2" as="offset" />
          </mxGeometry>
        </mxCell>
        <mxCell id="fvfQfKX5nGl6JzSHI2ud-83" value="" style="ellipse;whiteSpace=wrap;html=1;aspect=fixed;" parent="1" vertex="1">
          <mxGeometry x="410" y="220" width="30" height="30" as="geometry" />
        </mxCell>
        <mxCell id="fvfQfKX5nGl6JzSHI2ud-85" value="" style="ellipse;whiteSpace=wrap;html=1;aspect=fixed;" parent="1" vertex="1">
          <mxGeometry x="200" y="220" width="30" height="30" as="geometry" />
        </mxCell>
        <mxCell id="fvfQfKX5nGl6JzSHI2ud-88" style="edgeStyle=orthogonalEdgeStyle;curved=1;rounded=0;orthogonalLoop=1;jettySize=auto;html=1;exitX=1;exitY=0.5;exitDx=0;exitDy=0;strokeColor=default;align=center;verticalAlign=middle;fontFamily=Helvetica;fontSize=11;fontColor=default;labelBackgroundColor=default;endArrow=classic;" parent="1" source="fvfQfKX5nGl6JzSHI2ud-92" target="fvfQfKX5nGl6JzSHI2ud-97" edge="1">
          <mxGeometry relative="1" as="geometry" />
        </mxCell>
        <mxCell id="fvfQfKX5nGl6JzSHI2ud-89" value="d" style="edgeLabel;html=1;align=center;verticalAlign=middle;resizable=0;points=[];fontFamily=Helvetica;fontSize=11;fontColor=default;labelBackgroundColor=default;" parent="fvfQfKX5nGl6JzSHI2ud-88" vertex="1" connectable="0">
          <mxGeometry x="-0.125" y="-4" relative="1" as="geometry">
            <mxPoint x="5" y="-19" as="offset" />
          </mxGeometry>
        </mxCell>
        <mxCell id="fvfQfKX5nGl6JzSHI2ud-90" value="" style="edgeStyle=orthogonalEdgeStyle;curved=1;rounded=0;orthogonalLoop=1;jettySize=auto;html=1;strokeColor=default;align=center;verticalAlign=middle;fontFamily=Helvetica;fontSize=11;fontColor=default;labelBackgroundColor=default;endArrow=none;startArrow=classic;startFill=1;endFill=0;" parent="1" source="fvfQfKX5nGl6JzSHI2ud-92" target="fvfQfKX5nGl6JzSHI2ud-101" edge="1">
          <mxGeometry relative="1" as="geometry" />
        </mxCell>
        <mxCell id="fvfQfKX5nGl6JzSHI2ud-91" value="e" style="edgeLabel;html=1;align=center;verticalAlign=middle;resizable=0;points=[];fontFamily=Helvetica;fontSize=11;fontColor=default;labelBackgroundColor=default;" parent="fvfQfKX5nGl6JzSHI2ud-90" vertex="1" connectable="0">
          <mxGeometry x="0.1143" y="-3" relative="1" as="geometry">
            <mxPoint y="-12" as="offset" />
          </mxGeometry>
        </mxCell>
        <mxCell id="fvfQfKX5nGl6JzSHI2ud-92" value="" style="ellipse;whiteSpace=wrap;html=1;aspect=fixed;" parent="1" vertex="1">
          <mxGeometry x="720" y="220" width="30" height="30" as="geometry" />
        </mxCell>
        <mxCell id="fvfQfKX5nGl6JzSHI2ud-93" value="" style="edgeStyle=orthogonalEdgeStyle;curved=1;rounded=0;orthogonalLoop=1;jettySize=auto;html=1;strokeColor=default;align=center;verticalAlign=middle;fontFamily=Helvetica;fontSize=11;fontColor=default;labelBackgroundColor=default;endArrow=classic;" parent="1" source="fvfQfKX5nGl6JzSHI2ud-97" target="fvfQfKX5nGl6JzSHI2ud-98" edge="1">
          <mxGeometry relative="1" as="geometry" />
        </mxCell>
        <mxCell id="fvfQfKX5nGl6JzSHI2ud-94" value="e" style="edgeLabel;html=1;align=center;verticalAlign=middle;resizable=0;points=[];fontFamily=Helvetica;fontSize=11;fontColor=default;labelBackgroundColor=default;" parent="fvfQfKX5nGl6JzSHI2ud-93" vertex="1" connectable="0">
          <mxGeometry x="-0.0667" y="4" relative="1" as="geometry">
            <mxPoint x="2" y="-11" as="offset" />
          </mxGeometry>
        </mxCell>
        <mxCell id="fvfQfKX5nGl6JzSHI2ud-95" style="edgeStyle=orthogonalEdgeStyle;curved=1;rounded=0;orthogonalLoop=1;jettySize=auto;html=1;exitX=0.5;exitY=0;exitDx=0;exitDy=0;entryX=0.5;entryY=0;entryDx=0;entryDy=0;strokeColor=default;align=center;verticalAlign=middle;fontFamily=Helvetica;fontSize=11;fontColor=default;labelBackgroundColor=default;endArrow=classic;" parent="1" source="fvfQfKX5nGl6JzSHI2ud-97" target="fvfQfKX5nGl6JzSHI2ud-92" edge="1">
          <mxGeometry relative="1" as="geometry" />
        </mxCell>
        <mxCell id="fvfQfKX5nGl6JzSHI2ud-96" value="e" style="edgeLabel;html=1;align=center;verticalAlign=middle;resizable=0;points=[];fontFamily=Helvetica;fontSize=11;fontColor=default;labelBackgroundColor=default;" parent="fvfQfKX5nGl6JzSHI2ud-95" vertex="1" connectable="0">
          <mxGeometry x="-0.0267" y="-4" relative="1" as="geometry">
            <mxPoint x="-2" as="offset" />
          </mxGeometry>
        </mxCell>
        <mxCell id="fvfQfKX5nGl6JzSHI2ud-97" value="" style="ellipse;whiteSpace=wrap;html=1;aspect=fixed;" parent="1" vertex="1">
          <mxGeometry x="830" y="220" width="30" height="30" as="geometry" />
        </mxCell>
        <mxCell id="fvfQfKX5nGl6JzSHI2ud-141" style="edgeStyle=orthogonalEdgeStyle;curved=1;rounded=0;orthogonalLoop=1;jettySize=auto;html=1;exitX=1;exitY=0.5;exitDx=0;exitDy=0;entryX=0.5;entryY=0;entryDx=0;entryDy=0;strokeColor=default;align=center;verticalAlign=middle;fontFamily=Helvetica;fontSize=11;fontColor=default;labelBackgroundColor=default;endArrow=classic;" parent="1" source="fvfQfKX5nGl6JzSHI2ud-98" target="fvfQfKX5nGl6JzSHI2ud-2" edge="1">
          <mxGeometry relative="1" as="geometry">
            <mxPoint x="1015" y="300" as="targetPoint" />
          </mxGeometry>
        </mxCell>
        <mxCell id="fvfQfKX5nGl6JzSHI2ud-143" value="e" style="edgeLabel;html=1;align=center;verticalAlign=middle;resizable=0;points=[];fontFamily=Helvetica;fontSize=11;fontColor=default;labelBackgroundColor=default;" parent="fvfQfKX5nGl6JzSHI2ud-141" vertex="1" connectable="0">
          <mxGeometry x="-0.3043" y="-9" relative="1" as="geometry">
            <mxPoint x="14" y="-9" as="offset" />
          </mxGeometry>
        </mxCell>
        <mxCell id="fvfQfKX5nGl6JzSHI2ud-98" value="" style="ellipse;whiteSpace=wrap;html=1;aspect=fixed;" parent="1" vertex="1">
          <mxGeometry x="920" y="220" width="30" height="30" as="geometry" />
        </mxCell>
        <mxCell id="fvfQfKX5nGl6JzSHI2ud-99" style="edgeStyle=orthogonalEdgeStyle;curved=1;rounded=0;orthogonalLoop=1;jettySize=auto;html=1;exitX=0.5;exitY=1;exitDx=0;exitDy=0;entryX=0.5;entryY=1;entryDx=0;entryDy=0;strokeColor=default;align=center;verticalAlign=middle;fontFamily=Helvetica;fontSize=11;fontColor=default;labelBackgroundColor=default;endArrow=classic;" parent="1" source="fvfQfKX5nGl6JzSHI2ud-101" target="fvfQfKX5nGl6JzSHI2ud-98" edge="1">
          <mxGeometry relative="1" as="geometry" />
        </mxCell>
        <mxCell id="fvfQfKX5nGl6JzSHI2ud-100" value="e" style="edgeLabel;html=1;align=center;verticalAlign=middle;resizable=0;points=[];fontFamily=Helvetica;fontSize=11;fontColor=default;labelBackgroundColor=default;" parent="fvfQfKX5nGl6JzSHI2ud-99" vertex="1" connectable="0">
          <mxGeometry x="0.0353" y="-3" relative="1" as="geometry">
            <mxPoint y="7" as="offset" />
          </mxGeometry>
        </mxCell>
        <mxCell id="fvfQfKX5nGl6JzSHI2ud-101" value="" style="ellipse;whiteSpace=wrap;html=1;aspect=fixed;" parent="1" vertex="1">
          <mxGeometry x="620" y="220" width="30" height="30" as="geometry" />
        </mxCell>
        <mxCell id="fvfQfKX5nGl6JzSHI2ud-107" style="edgeStyle=orthogonalEdgeStyle;curved=1;rounded=0;orthogonalLoop=1;jettySize=auto;html=1;exitX=1;exitY=0.5;exitDx=0;exitDy=0;strokeColor=default;align=center;verticalAlign=middle;fontFamily=Helvetica;fontSize=11;fontColor=default;labelBackgroundColor=default;endArrow=classic;" parent="1" source="fvfQfKX5nGl6JzSHI2ud-111" target="fvfQfKX5nGl6JzSHI2ud-116" edge="1">
          <mxGeometry relative="1" as="geometry" />
        </mxCell>
        <mxCell id="fvfQfKX5nGl6JzSHI2ud-108" value="d" style="edgeLabel;html=1;align=center;verticalAlign=middle;resizable=0;points=[];fontFamily=Helvetica;fontSize=11;fontColor=default;labelBackgroundColor=default;" parent="fvfQfKX5nGl6JzSHI2ud-107" vertex="1" connectable="0">
          <mxGeometry x="-0.125" y="-4" relative="1" as="geometry">
            <mxPoint x="5" y="-19" as="offset" />
          </mxGeometry>
        </mxCell>
        <mxCell id="fvfQfKX5nGl6JzSHI2ud-109" value="" style="edgeStyle=orthogonalEdgeStyle;curved=1;rounded=0;orthogonalLoop=1;jettySize=auto;html=1;strokeColor=default;align=center;verticalAlign=middle;fontFamily=Helvetica;fontSize=11;fontColor=default;labelBackgroundColor=default;endArrow=none;startArrow=classic;startFill=1;endFill=0;" parent="1" source="fvfQfKX5nGl6JzSHI2ud-111" target="fvfQfKX5nGl6JzSHI2ud-118" edge="1">
          <mxGeometry relative="1" as="geometry" />
        </mxCell>
        <mxCell id="fvfQfKX5nGl6JzSHI2ud-110" value="e" style="edgeLabel;html=1;align=center;verticalAlign=middle;resizable=0;points=[];fontFamily=Helvetica;fontSize=11;fontColor=default;labelBackgroundColor=default;" parent="fvfQfKX5nGl6JzSHI2ud-109" vertex="1" connectable="0">
          <mxGeometry x="0.1143" y="-3" relative="1" as="geometry">
            <mxPoint y="-12" as="offset" />
          </mxGeometry>
        </mxCell>
        <mxCell id="fvfQfKX5nGl6JzSHI2ud-111" value="" style="ellipse;whiteSpace=wrap;html=1;aspect=fixed;" parent="1" vertex="1">
          <mxGeometry x="720" y="390" width="30" height="30" as="geometry" />
        </mxCell>
        <mxCell id="fvfQfKX5nGl6JzSHI2ud-112" value="" style="edgeStyle=orthogonalEdgeStyle;curved=1;rounded=0;orthogonalLoop=1;jettySize=auto;html=1;strokeColor=default;align=center;verticalAlign=middle;fontFamily=Helvetica;fontSize=11;fontColor=default;labelBackgroundColor=default;endArrow=classic;" parent="1" source="fvfQfKX5nGl6JzSHI2ud-116" target="fvfQfKX5nGl6JzSHI2ud-117" edge="1">
          <mxGeometry relative="1" as="geometry" />
        </mxCell>
        <mxCell id="fvfQfKX5nGl6JzSHI2ud-113" value="e" style="edgeLabel;html=1;align=center;verticalAlign=middle;resizable=0;points=[];fontFamily=Helvetica;fontSize=11;fontColor=default;labelBackgroundColor=default;" parent="fvfQfKX5nGl6JzSHI2ud-112" vertex="1" connectable="0">
          <mxGeometry x="-0.0667" y="4" relative="1" as="geometry">
            <mxPoint x="2" y="-11" as="offset" />
          </mxGeometry>
        </mxCell>
        <mxCell id="fvfQfKX5nGl6JzSHI2ud-114" style="edgeStyle=orthogonalEdgeStyle;curved=1;rounded=0;orthogonalLoop=1;jettySize=auto;html=1;exitX=0.5;exitY=0;exitDx=0;exitDy=0;entryX=0.5;entryY=0;entryDx=0;entryDy=0;strokeColor=default;align=center;verticalAlign=middle;fontFamily=Helvetica;fontSize=11;fontColor=default;labelBackgroundColor=default;endArrow=classic;" parent="1" source="fvfQfKX5nGl6JzSHI2ud-116" target="fvfQfKX5nGl6JzSHI2ud-111" edge="1">
          <mxGeometry relative="1" as="geometry" />
        </mxCell>
        <mxCell id="fvfQfKX5nGl6JzSHI2ud-115" value="e" style="edgeLabel;html=1;align=center;verticalAlign=middle;resizable=0;points=[];fontFamily=Helvetica;fontSize=11;fontColor=default;labelBackgroundColor=default;" parent="fvfQfKX5nGl6JzSHI2ud-114" vertex="1" connectable="0">
          <mxGeometry x="-0.0267" y="-4" relative="1" as="geometry">
            <mxPoint x="-2" as="offset" />
          </mxGeometry>
        </mxCell>
        <mxCell id="fvfQfKX5nGl6JzSHI2ud-116" value="" style="ellipse;whiteSpace=wrap;html=1;aspect=fixed;" parent="1" vertex="1">
          <mxGeometry x="830" y="390" width="30" height="30" as="geometry" />
        </mxCell>
        <mxCell id="fvfQfKX5nGl6JzSHI2ud-140" style="edgeStyle=orthogonalEdgeStyle;curved=1;rounded=0;orthogonalLoop=1;jettySize=auto;html=1;exitX=1;exitY=0.5;exitDx=0;exitDy=0;entryX=0.5;entryY=1;entryDx=0;entryDy=0;strokeColor=default;align=center;verticalAlign=middle;fontFamily=Helvetica;fontSize=11;fontColor=default;labelBackgroundColor=default;endArrow=classic;" parent="1" source="fvfQfKX5nGl6JzSHI2ud-117" target="fvfQfKX5nGl6JzSHI2ud-2" edge="1">
          <mxGeometry relative="1" as="geometry">
            <mxPoint x="1015" y="330" as="targetPoint" />
          </mxGeometry>
        </mxCell>
        <mxCell id="fvfQfKX5nGl6JzSHI2ud-142" value="e" style="edgeLabel;html=1;align=center;verticalAlign=middle;resizable=0;points=[];fontFamily=Helvetica;fontSize=11;fontColor=default;labelBackgroundColor=default;" parent="fvfQfKX5nGl6JzSHI2ud-140" vertex="1" connectable="0">
          <mxGeometry x="0.1481" y="15" relative="1" as="geometry">
            <mxPoint as="offset" />
          </mxGeometry>
        </mxCell>
        <mxCell id="fvfQfKX5nGl6JzSHI2ud-117" value="" style="ellipse;whiteSpace=wrap;html=1;aspect=fixed;" parent="1" vertex="1">
          <mxGeometry x="920" y="390" width="30" height="30" as="geometry" />
        </mxCell>
        <mxCell id="fvfQfKX5nGl6JzSHI2ud-118" value="" style="ellipse;whiteSpace=wrap;html=1;aspect=fixed;" parent="1" vertex="1">
          <mxGeometry x="620" y="390" width="30" height="30" as="geometry" />
        </mxCell>
        <mxCell id="fvfQfKX5nGl6JzSHI2ud-119" style="edgeStyle=orthogonalEdgeStyle;curved=1;rounded=0;orthogonalLoop=1;jettySize=auto;html=1;exitX=1;exitY=0.5;exitDx=0;exitDy=0;strokeColor=default;align=center;verticalAlign=middle;fontFamily=Helvetica;fontSize=11;fontColor=default;labelBackgroundColor=default;endArrow=classic;" parent="1" source="fvfQfKX5nGl6JzSHI2ud-123" target="fvfQfKX5nGl6JzSHI2ud-128" edge="1">
          <mxGeometry relative="1" as="geometry" />
        </mxCell>
        <mxCell id="fvfQfKX5nGl6JzSHI2ud-120" value="d" style="edgeLabel;html=1;align=center;verticalAlign=middle;resizable=0;points=[];fontFamily=Helvetica;fontSize=11;fontColor=default;labelBackgroundColor=default;" parent="fvfQfKX5nGl6JzSHI2ud-119" vertex="1" connectable="0">
          <mxGeometry x="-0.125" y="-4" relative="1" as="geometry">
            <mxPoint x="5" y="-19" as="offset" />
          </mxGeometry>
        </mxCell>
        <mxCell id="fvfQfKX5nGl6JzSHI2ud-121" value="" style="edgeStyle=orthogonalEdgeStyle;curved=1;rounded=0;orthogonalLoop=1;jettySize=auto;html=1;strokeColor=default;align=center;verticalAlign=middle;fontFamily=Helvetica;fontSize=11;fontColor=default;labelBackgroundColor=default;endArrow=none;startArrow=classic;startFill=1;endFill=0;" parent="1" source="fvfQfKX5nGl6JzSHI2ud-123" target="fvfQfKX5nGl6JzSHI2ud-130" edge="1">
          <mxGeometry relative="1" as="geometry" />
        </mxCell>
        <mxCell id="fvfQfKX5nGl6JzSHI2ud-122" value="e" style="edgeLabel;html=1;align=center;verticalAlign=middle;resizable=0;points=[];fontFamily=Helvetica;fontSize=11;fontColor=default;labelBackgroundColor=default;" parent="fvfQfKX5nGl6JzSHI2ud-121" vertex="1" connectable="0">
          <mxGeometry x="0.1143" y="-3" relative="1" as="geometry">
            <mxPoint y="-12" as="offset" />
          </mxGeometry>
        </mxCell>
        <mxCell id="fvfQfKX5nGl6JzSHI2ud-123" value="" style="ellipse;whiteSpace=wrap;html=1;aspect=fixed;" parent="1" vertex="1">
          <mxGeometry x="130" y="780" width="30" height="30" as="geometry" />
        </mxCell>
        <mxCell id="fvfQfKX5nGl6JzSHI2ud-124" value="" style="edgeStyle=orthogonalEdgeStyle;curved=1;rounded=0;orthogonalLoop=1;jettySize=auto;html=1;strokeColor=default;align=center;verticalAlign=middle;fontFamily=Helvetica;fontSize=11;fontColor=default;labelBackgroundColor=default;endArrow=classic;" parent="1" source="fvfQfKX5nGl6JzSHI2ud-128" target="fvfQfKX5nGl6JzSHI2ud-129" edge="1">
          <mxGeometry relative="1" as="geometry" />
        </mxCell>
        <mxCell id="fvfQfKX5nGl6JzSHI2ud-125" value="e" style="edgeLabel;html=1;align=center;verticalAlign=middle;resizable=0;points=[];fontFamily=Helvetica;fontSize=11;fontColor=default;labelBackgroundColor=default;" parent="fvfQfKX5nGl6JzSHI2ud-124" vertex="1" connectable="0">
          <mxGeometry x="-0.0667" y="4" relative="1" as="geometry">
            <mxPoint x="2" y="-11" as="offset" />
          </mxGeometry>
        </mxCell>
        <mxCell id="fvfQfKX5nGl6JzSHI2ud-126" style="edgeStyle=orthogonalEdgeStyle;curved=1;rounded=0;orthogonalLoop=1;jettySize=auto;html=1;exitX=0.5;exitY=0;exitDx=0;exitDy=0;entryX=0.5;entryY=0;entryDx=0;entryDy=0;strokeColor=default;align=center;verticalAlign=middle;fontFamily=Helvetica;fontSize=11;fontColor=default;labelBackgroundColor=default;endArrow=classic;" parent="1" source="fvfQfKX5nGl6JzSHI2ud-128" target="fvfQfKX5nGl6JzSHI2ud-123" edge="1">
          <mxGeometry relative="1" as="geometry" />
        </mxCell>
        <mxCell id="fvfQfKX5nGl6JzSHI2ud-127" value="e" style="edgeLabel;html=1;align=center;verticalAlign=middle;resizable=0;points=[];fontFamily=Helvetica;fontSize=11;fontColor=default;labelBackgroundColor=default;" parent="fvfQfKX5nGl6JzSHI2ud-126" vertex="1" connectable="0">
          <mxGeometry x="-0.0267" y="-4" relative="1" as="geometry">
            <mxPoint x="-2" as="offset" />
          </mxGeometry>
        </mxCell>
        <mxCell id="fvfQfKX5nGl6JzSHI2ud-128" value="" style="ellipse;whiteSpace=wrap;html=1;aspect=fixed;" parent="1" vertex="1">
          <mxGeometry x="240" y="780" width="30" height="30" as="geometry" />
        </mxCell>
        <mxCell id="fvfQfKX5nGl6JzSHI2ud-129" value="" style="ellipse;whiteSpace=wrap;html=1;aspect=fixed;" parent="1" vertex="1">
          <mxGeometry x="330" y="780" width="30" height="30" as="geometry" />
        </mxCell>
        <mxCell id="fvfQfKX5nGl6JzSHI2ud-131" style="edgeStyle=orthogonalEdgeStyle;curved=1;rounded=0;orthogonalLoop=1;jettySize=auto;html=1;exitX=0.5;exitY=1;exitDx=0;exitDy=0;entryX=0.5;entryY=1;entryDx=0;entryDy=0;strokeColor=default;align=center;verticalAlign=middle;fontFamily=Helvetica;fontSize=11;fontColor=default;labelBackgroundColor=default;endArrow=classic;" parent="1" source="fvfQfKX5nGl6JzSHI2ud-130" target="fvfQfKX5nGl6JzSHI2ud-129" edge="1">
          <mxGeometry relative="1" as="geometry" />
        </mxCell>
        <mxCell id="fvfQfKX5nGl6JzSHI2ud-132" value="e" style="edgeLabel;html=1;align=center;verticalAlign=middle;resizable=0;points=[];fontFamily=Helvetica;fontSize=11;fontColor=default;labelBackgroundColor=default;" parent="fvfQfKX5nGl6JzSHI2ud-131" vertex="1" connectable="0">
          <mxGeometry x="0.0057" y="-5" relative="1" as="geometry">
            <mxPoint as="offset" />
          </mxGeometry>
        </mxCell>
        <mxCell id="fvfQfKX5nGl6JzSHI2ud-130" value="" style="ellipse;whiteSpace=wrap;html=1;aspect=fixed;" parent="1" vertex="1">
          <mxGeometry x="30" y="780" width="30" height="30" as="geometry" />
        </mxCell>
        <mxCell id="fvfQfKX5nGl6JzSHI2ud-133" style="edgeStyle=orthogonalEdgeStyle;rounded=0;orthogonalLoop=1;jettySize=auto;html=1;exitX=1;exitY=0.5;exitDx=0;exitDy=0;entryX=0;entryY=0.5;entryDx=0;entryDy=0;" parent="1" source="fvfQfKX5nGl6JzSHI2ud-137" target="fvfQfKX5nGl6JzSHI2ud-138" edge="1">
          <mxGeometry relative="1" as="geometry" />
        </mxCell>
        <mxCell id="fvfQfKX5nGl6JzSHI2ud-134" value="t" style="edgeLabel;html=1;align=center;verticalAlign=middle;resizable=0;points=[];" parent="fvfQfKX5nGl6JzSHI2ud-133" vertex="1" connectable="0">
          <mxGeometry x="-0.0381" y="4" relative="1" as="geometry">
            <mxPoint y="-11" as="offset" />
          </mxGeometry>
        </mxCell>
        <mxCell id="fvfQfKX5nGl6JzSHI2ud-137" value="" style="ellipse;whiteSpace=wrap;html=1;aspect=fixed;" parent="1" vertex="1">
          <mxGeometry x="210" y="580" width="30" height="30" as="geometry" />
        </mxCell>
        <mxCell id="fvfQfKX5nGl6JzSHI2ud-138" value="" style="ellipse;whiteSpace=wrap;html=1;aspect=fixed;" parent="1" vertex="1">
          <mxGeometry x="310" y="580" width="30" height="30" as="geometry" />
        </mxCell>
      </root>
    </mxGraphModel>
  </diagram>
  <diagram id="ObkFID_4grcbMA-K03DU" name="Страница — 2">
    <mxGraphModel dx="1222" dy="798" grid="1" gridSize="10" guides="1" tooltips="1" connect="1" arrows="1" fold="1" page="1" pageScale="1" pageWidth="827" pageHeight="1169" math="0" shadow="0">
      <root>
        <mxCell id="0" />
        <mxCell id="1" parent="0" />
        <mxCell id="-aFVhoJqZaJN3G_nW5kC-1" style="edgeStyle=orthogonalEdgeStyle;rounded=0;orthogonalLoop=1;jettySize=auto;html=1;exitX=1;exitY=0.5;exitDx=0;exitDy=0;entryX=0;entryY=0.5;entryDx=0;entryDy=0;" parent="1" source="-aFVhoJqZaJN3G_nW5kC-5" target="-aFVhoJqZaJN3G_nW5kC-12" edge="1">
          <mxGeometry relative="1" as="geometry" />
        </mxCell>
        <mxCell id="-aFVhoJqZaJN3G_nW5kC-2" value="m" style="edgeLabel;html=1;align=center;verticalAlign=middle;resizable=0;points=[];" parent="-aFVhoJqZaJN3G_nW5kC-1" vertex="1" connectable="0">
          <mxGeometry x="-0.0381" y="4" relative="1" as="geometry">
            <mxPoint y="-11" as="offset" />
          </mxGeometry>
        </mxCell>
        <mxCell id="-aFVhoJqZaJN3G_nW5kC-3" style="edgeStyle=orthogonalEdgeStyle;curved=1;rounded=0;orthogonalLoop=1;jettySize=auto;html=1;exitX=0.5;exitY=1;exitDx=0;exitDy=0;entryX=0.5;entryY=1;entryDx=0;entryDy=0;strokeColor=default;align=center;verticalAlign=middle;fontFamily=Helvetica;fontSize=11;fontColor=default;labelBackgroundColor=default;endArrow=classic;" parent="1" source="-aFVhoJqZaJN3G_nW5kC-5" target="-aFVhoJqZaJN3G_nW5kC-12" edge="1">
          <mxGeometry relative="1" as="geometry" />
        </mxCell>
        <mxCell id="-aFVhoJqZaJN3G_nW5kC-4" value="e" style="edgeLabel;html=1;align=center;verticalAlign=middle;resizable=0;points=[];fontFamily=Helvetica;fontSize=11;fontColor=default;labelBackgroundColor=default;" parent="-aFVhoJqZaJN3G_nW5kC-3" vertex="1" connectable="0">
          <mxGeometry x="0.0238" y="-4" relative="1" as="geometry">
            <mxPoint as="offset" />
          </mxGeometry>
        </mxCell>
        <mxCell id="-aFVhoJqZaJN3G_nW5kC-5" value="0" style="ellipse;whiteSpace=wrap;html=1;aspect=fixed;" parent="1" vertex="1">
          <mxGeometry x="50" y="300" width="30" height="30" as="geometry" />
        </mxCell>
        <mxCell id="-aFVhoJqZaJN3G_nW5kC-6" value="" style="ellipse;whiteSpace=wrap;html=1;aspect=fixed;" parent="1" vertex="1">
          <mxGeometry x="1120" y="290" width="50" height="50" as="geometry" />
        </mxCell>
        <mxCell id="-aFVhoJqZaJN3G_nW5kC-7" value="19" style="ellipse;whiteSpace=wrap;html=1;aspect=fixed;" parent="1" vertex="1">
          <mxGeometry x="1130" y="300" width="30" height="30" as="geometry" />
        </mxCell>
        <mxCell id="-aFVhoJqZaJN3G_nW5kC-8" style="edgeStyle=orthogonalEdgeStyle;curved=1;rounded=0;orthogonalLoop=1;jettySize=auto;html=1;exitX=1;exitY=0.5;exitDx=0;exitDy=0;entryX=0.5;entryY=1;entryDx=0;entryDy=0;strokeColor=default;align=center;verticalAlign=middle;fontFamily=Helvetica;fontSize=11;fontColor=default;labelBackgroundColor=default;endArrow=classic;" parent="1" source="-aFVhoJqZaJN3G_nW5kC-12" target="-aFVhoJqZaJN3G_nW5kC-42" edge="1">
          <mxGeometry relative="1" as="geometry" />
        </mxCell>
        <mxCell id="-aFVhoJqZaJN3G_nW5kC-9" value="e" style="edgeLabel;html=1;align=center;verticalAlign=middle;resizable=0;points=[];fontFamily=Helvetica;fontSize=11;fontColor=default;labelBackgroundColor=default;" parent="-aFVhoJqZaJN3G_nW5kC-8" vertex="1" connectable="0">
          <mxGeometry x="0.2267" y="4" relative="1" as="geometry">
            <mxPoint x="-11" as="offset" />
          </mxGeometry>
        </mxCell>
        <mxCell id="-aFVhoJqZaJN3G_nW5kC-10" style="edgeStyle=orthogonalEdgeStyle;curved=1;rounded=0;orthogonalLoop=1;jettySize=auto;html=1;exitX=1;exitY=0.5;exitDx=0;exitDy=0;entryX=0.5;entryY=0;entryDx=0;entryDy=0;strokeColor=default;align=center;verticalAlign=middle;fontFamily=Helvetica;fontSize=11;fontColor=default;labelBackgroundColor=default;endArrow=classic;" parent="1" source="-aFVhoJqZaJN3G_nW5kC-12" target="-aFVhoJqZaJN3G_nW5kC-31" edge="1">
          <mxGeometry relative="1" as="geometry" />
        </mxCell>
        <mxCell id="-aFVhoJqZaJN3G_nW5kC-11" value="e" style="edgeLabel;html=1;align=center;verticalAlign=middle;resizable=0;points=[];fontFamily=Helvetica;fontSize=11;fontColor=default;labelBackgroundColor=default;" parent="-aFVhoJqZaJN3G_nW5kC-10" vertex="1" connectable="0">
          <mxGeometry x="0.266" y="-1" relative="1" as="geometry">
            <mxPoint as="offset" />
          </mxGeometry>
        </mxCell>
        <mxCell id="-aFVhoJqZaJN3G_nW5kC-12" value="1" style="ellipse;whiteSpace=wrap;html=1;aspect=fixed;" parent="1" vertex="1">
          <mxGeometry x="150" y="300" width="30" height="30" as="geometry" />
        </mxCell>
        <mxCell id="-aFVhoJqZaJN3G_nW5kC-13" style="edgeStyle=orthogonalEdgeStyle;rounded=0;orthogonalLoop=1;jettySize=auto;html=1;exitX=1;exitY=0.5;exitDx=0;exitDy=0;entryX=0;entryY=0.5;entryDx=0;entryDy=0;" parent="1" source="-aFVhoJqZaJN3G_nW5kC-15" target="-aFVhoJqZaJN3G_nW5kC-58" edge="1">
          <mxGeometry relative="1" as="geometry">
            <mxPoint x="610" y="235" as="targetPoint" />
          </mxGeometry>
        </mxCell>
        <mxCell id="-aFVhoJqZaJN3G_nW5kC-14" value="t" style="edgeLabel;html=1;align=center;verticalAlign=middle;resizable=0;points=[];fontFamily=Helvetica;fontSize=11;fontColor=default;labelBackgroundColor=default;" parent="-aFVhoJqZaJN3G_nW5kC-13" vertex="1" connectable="0">
          <mxGeometry x="0.1048" y="1" relative="1" as="geometry">
            <mxPoint x="-9" y="-9" as="offset" />
          </mxGeometry>
        </mxCell>
        <mxCell id="-aFVhoJqZaJN3G_nW5kC-15" value="5" style="ellipse;whiteSpace=wrap;html=1;aspect=fixed;" parent="1" vertex="1">
          <mxGeometry x="510" y="220" width="30" height="30" as="geometry" />
        </mxCell>
        <mxCell id="-aFVhoJqZaJN3G_nW5kC-16" style="edgeStyle=orthogonalEdgeStyle;curved=1;rounded=0;orthogonalLoop=1;jettySize=auto;html=1;exitX=1;exitY=0.5;exitDx=0;exitDy=0;strokeColor=default;align=center;verticalAlign=middle;fontFamily=Helvetica;fontSize=11;fontColor=default;labelBackgroundColor=default;endArrow=classic;" parent="1" source="-aFVhoJqZaJN3G_nW5kC-20" target="-aFVhoJqZaJN3G_nW5kC-25" edge="1">
          <mxGeometry relative="1" as="geometry" />
        </mxCell>
        <mxCell id="-aFVhoJqZaJN3G_nW5kC-17" value="d" style="edgeLabel;html=1;align=center;verticalAlign=middle;resizable=0;points=[];fontFamily=Helvetica;fontSize=11;fontColor=default;labelBackgroundColor=default;" parent="-aFVhoJqZaJN3G_nW5kC-16" vertex="1" connectable="0">
          <mxGeometry x="-0.125" y="-4" relative="1" as="geometry">
            <mxPoint x="5" y="-19" as="offset" />
          </mxGeometry>
        </mxCell>
        <mxCell id="-aFVhoJqZaJN3G_nW5kC-18" value="" style="edgeStyle=orthogonalEdgeStyle;curved=1;rounded=0;orthogonalLoop=1;jettySize=auto;html=1;strokeColor=default;align=center;verticalAlign=middle;fontFamily=Helvetica;fontSize=11;fontColor=default;labelBackgroundColor=default;endArrow=none;startArrow=classic;startFill=1;endFill=0;" parent="1" source="-aFVhoJqZaJN3G_nW5kC-20" target="-aFVhoJqZaJN3G_nW5kC-31" edge="1">
          <mxGeometry relative="1" as="geometry" />
        </mxCell>
        <mxCell id="-aFVhoJqZaJN3G_nW5kC-19" value="e" style="edgeLabel;html=1;align=center;verticalAlign=middle;resizable=0;points=[];fontFamily=Helvetica;fontSize=11;fontColor=default;labelBackgroundColor=default;" parent="-aFVhoJqZaJN3G_nW5kC-18" vertex="1" connectable="0">
          <mxGeometry x="0.1143" y="-3" relative="1" as="geometry">
            <mxPoint y="-12" as="offset" />
          </mxGeometry>
        </mxCell>
        <mxCell id="-aFVhoJqZaJN3G_nW5kC-20" value="12" style="ellipse;whiteSpace=wrap;html=1;aspect=fixed;" parent="1" vertex="1">
          <mxGeometry x="300" y="390" width="30" height="30" as="geometry" />
        </mxCell>
        <mxCell id="-aFVhoJqZaJN3G_nW5kC-21" value="" style="edgeStyle=orthogonalEdgeStyle;curved=1;rounded=0;orthogonalLoop=1;jettySize=auto;html=1;strokeColor=default;align=center;verticalAlign=middle;fontFamily=Helvetica;fontSize=11;fontColor=default;labelBackgroundColor=default;endArrow=classic;" parent="1" source="-aFVhoJqZaJN3G_nW5kC-25" target="-aFVhoJqZaJN3G_nW5kC-28" edge="1">
          <mxGeometry relative="1" as="geometry" />
        </mxCell>
        <mxCell id="-aFVhoJqZaJN3G_nW5kC-22" value="e" style="edgeLabel;html=1;align=center;verticalAlign=middle;resizable=0;points=[];fontFamily=Helvetica;fontSize=11;fontColor=default;labelBackgroundColor=default;" parent="-aFVhoJqZaJN3G_nW5kC-21" vertex="1" connectable="0">
          <mxGeometry x="-0.0667" y="4" relative="1" as="geometry">
            <mxPoint x="2" y="-11" as="offset" />
          </mxGeometry>
        </mxCell>
        <mxCell id="-aFVhoJqZaJN3G_nW5kC-23" style="edgeStyle=orthogonalEdgeStyle;curved=1;rounded=0;orthogonalLoop=1;jettySize=auto;html=1;exitX=0.5;exitY=0;exitDx=0;exitDy=0;entryX=0.5;entryY=0;entryDx=0;entryDy=0;strokeColor=default;align=center;verticalAlign=middle;fontFamily=Helvetica;fontSize=11;fontColor=default;labelBackgroundColor=default;endArrow=classic;" parent="1" source="-aFVhoJqZaJN3G_nW5kC-25" target="-aFVhoJqZaJN3G_nW5kC-20" edge="1">
          <mxGeometry relative="1" as="geometry" />
        </mxCell>
        <mxCell id="-aFVhoJqZaJN3G_nW5kC-24" value="e" style="edgeLabel;html=1;align=center;verticalAlign=middle;resizable=0;points=[];fontFamily=Helvetica;fontSize=11;fontColor=default;labelBackgroundColor=default;" parent="-aFVhoJqZaJN3G_nW5kC-23" vertex="1" connectable="0">
          <mxGeometry x="-0.0267" y="-4" relative="1" as="geometry">
            <mxPoint x="-2" as="offset" />
          </mxGeometry>
        </mxCell>
        <mxCell id="-aFVhoJqZaJN3G_nW5kC-25" value="13" style="ellipse;whiteSpace=wrap;html=1;aspect=fixed;" parent="1" vertex="1">
          <mxGeometry x="410" y="390" width="30" height="30" as="geometry" />
        </mxCell>
        <mxCell id="-aFVhoJqZaJN3G_nW5kC-26" value="" style="edgeStyle=orthogonalEdgeStyle;curved=1;rounded=0;orthogonalLoop=1;jettySize=auto;html=1;strokeColor=default;align=center;verticalAlign=middle;fontFamily=Helvetica;fontSize=11;fontColor=default;labelBackgroundColor=default;endArrow=classic;entryX=0;entryY=0.5;entryDx=0;entryDy=0;" parent="1" source="-aFVhoJqZaJN3G_nW5kC-28" target="-aFVhoJqZaJN3G_nW5kC-72" edge="1">
          <mxGeometry relative="1" as="geometry">
            <mxPoint x="610" y="405" as="targetPoint" />
          </mxGeometry>
        </mxCell>
        <mxCell id="-aFVhoJqZaJN3G_nW5kC-27" value="t" style="edgeLabel;html=1;align=center;verticalAlign=middle;resizable=0;points=[];fontFamily=Helvetica;fontSize=11;fontColor=default;labelBackgroundColor=default;" parent="-aFVhoJqZaJN3G_nW5kC-26" vertex="1" connectable="0">
          <mxGeometry x="-0.2306" y="1" relative="1" as="geometry">
            <mxPoint x="9" y="-14" as="offset" />
          </mxGeometry>
        </mxCell>
        <mxCell id="-aFVhoJqZaJN3G_nW5kC-28" value="14" style="ellipse;whiteSpace=wrap;html=1;aspect=fixed;" parent="1" vertex="1">
          <mxGeometry x="500" y="390" width="30" height="30" as="geometry" />
        </mxCell>
        <mxCell id="-aFVhoJqZaJN3G_nW5kC-29" style="edgeStyle=orthogonalEdgeStyle;curved=1;rounded=0;orthogonalLoop=1;jettySize=auto;html=1;exitX=0.5;exitY=1;exitDx=0;exitDy=0;entryX=0.5;entryY=1;entryDx=0;entryDy=0;strokeColor=default;align=center;verticalAlign=middle;fontFamily=Helvetica;fontSize=11;fontColor=default;labelBackgroundColor=default;endArrow=classic;" parent="1" source="-aFVhoJqZaJN3G_nW5kC-31" target="-aFVhoJqZaJN3G_nW5kC-28" edge="1">
          <mxGeometry relative="1" as="geometry" />
        </mxCell>
        <mxCell id="-aFVhoJqZaJN3G_nW5kC-30" value="e" style="edgeLabel;html=1;align=center;verticalAlign=middle;resizable=0;points=[];fontFamily=Helvetica;fontSize=11;fontColor=default;labelBackgroundColor=default;" parent="-aFVhoJqZaJN3G_nW5kC-29" vertex="1" connectable="0">
          <mxGeometry x="0.0353" y="-3" relative="1" as="geometry">
            <mxPoint y="7" as="offset" />
          </mxGeometry>
        </mxCell>
        <mxCell id="-aFVhoJqZaJN3G_nW5kC-31" value="11" style="ellipse;whiteSpace=wrap;html=1;aspect=fixed;" parent="1" vertex="1">
          <mxGeometry x="200" y="390" width="30" height="30" as="geometry" />
        </mxCell>
        <mxCell id="-aFVhoJqZaJN3G_nW5kC-32" style="edgeStyle=orthogonalEdgeStyle;curved=1;rounded=0;orthogonalLoop=1;jettySize=auto;html=1;exitX=1;exitY=0.5;exitDx=0;exitDy=0;strokeColor=default;align=center;verticalAlign=middle;fontFamily=Helvetica;fontSize=11;fontColor=default;labelBackgroundColor=default;endArrow=classic;" parent="1" source="-aFVhoJqZaJN3G_nW5kC-36" target="-aFVhoJqZaJN3G_nW5kC-41" edge="1">
          <mxGeometry relative="1" as="geometry" />
        </mxCell>
        <mxCell id="-aFVhoJqZaJN3G_nW5kC-33" value="d" style="edgeLabel;html=1;align=center;verticalAlign=middle;resizable=0;points=[];fontFamily=Helvetica;fontSize=11;fontColor=default;labelBackgroundColor=default;" parent="-aFVhoJqZaJN3G_nW5kC-32" vertex="1" connectable="0">
          <mxGeometry x="-0.125" y="-4" relative="1" as="geometry">
            <mxPoint x="5" y="-19" as="offset" />
          </mxGeometry>
        </mxCell>
        <mxCell id="-aFVhoJqZaJN3G_nW5kC-34" value="" style="edgeStyle=orthogonalEdgeStyle;curved=1;rounded=0;orthogonalLoop=1;jettySize=auto;html=1;strokeColor=default;align=center;verticalAlign=middle;fontFamily=Helvetica;fontSize=11;fontColor=default;labelBackgroundColor=default;endArrow=none;startArrow=classic;startFill=1;endFill=0;" parent="1" source="-aFVhoJqZaJN3G_nW5kC-36" target="-aFVhoJqZaJN3G_nW5kC-42" edge="1">
          <mxGeometry relative="1" as="geometry" />
        </mxCell>
        <mxCell id="-aFVhoJqZaJN3G_nW5kC-35" value="e" style="edgeLabel;html=1;align=center;verticalAlign=middle;resizable=0;points=[];fontFamily=Helvetica;fontSize=11;fontColor=default;labelBackgroundColor=default;" parent="-aFVhoJqZaJN3G_nW5kC-34" vertex="1" connectable="0">
          <mxGeometry x="0.1143" y="-3" relative="1" as="geometry">
            <mxPoint y="-12" as="offset" />
          </mxGeometry>
        </mxCell>
        <mxCell id="-aFVhoJqZaJN3G_nW5kC-36" value="3" style="ellipse;whiteSpace=wrap;html=1;aspect=fixed;" parent="1" vertex="1">
          <mxGeometry x="300" y="220" width="30" height="30" as="geometry" />
        </mxCell>
        <mxCell id="-aFVhoJqZaJN3G_nW5kC-37" value="" style="edgeStyle=orthogonalEdgeStyle;curved=1;rounded=0;orthogonalLoop=1;jettySize=auto;html=1;strokeColor=default;align=center;verticalAlign=middle;fontFamily=Helvetica;fontSize=11;fontColor=default;labelBackgroundColor=default;endArrow=classic;entryX=0;entryY=0.5;entryDx=0;entryDy=0;" parent="1" source="-aFVhoJqZaJN3G_nW5kC-41" target="-aFVhoJqZaJN3G_nW5kC-15" edge="1">
          <mxGeometry relative="1" as="geometry">
            <mxPoint x="500" y="235" as="targetPoint" />
          </mxGeometry>
        </mxCell>
        <mxCell id="-aFVhoJqZaJN3G_nW5kC-38" value="e" style="edgeLabel;html=1;align=center;verticalAlign=middle;resizable=0;points=[];fontFamily=Helvetica;fontSize=11;fontColor=default;labelBackgroundColor=default;" parent="-aFVhoJqZaJN3G_nW5kC-37" vertex="1" connectable="0">
          <mxGeometry x="-0.0667" y="4" relative="1" as="geometry">
            <mxPoint x="2" y="-11" as="offset" />
          </mxGeometry>
        </mxCell>
        <mxCell id="-aFVhoJqZaJN3G_nW5kC-39" style="edgeStyle=orthogonalEdgeStyle;curved=1;rounded=0;orthogonalLoop=1;jettySize=auto;html=1;exitX=0.5;exitY=0;exitDx=0;exitDy=0;entryX=0.5;entryY=0;entryDx=0;entryDy=0;strokeColor=default;align=center;verticalAlign=middle;fontFamily=Helvetica;fontSize=11;fontColor=default;labelBackgroundColor=default;endArrow=classic;" parent="1" source="-aFVhoJqZaJN3G_nW5kC-41" target="-aFVhoJqZaJN3G_nW5kC-36" edge="1">
          <mxGeometry relative="1" as="geometry" />
        </mxCell>
        <mxCell id="-aFVhoJqZaJN3G_nW5kC-40" value="e" style="edgeLabel;html=1;align=center;verticalAlign=middle;resizable=0;points=[];fontFamily=Helvetica;fontSize=11;fontColor=default;labelBackgroundColor=default;" parent="-aFVhoJqZaJN3G_nW5kC-39" vertex="1" connectable="0">
          <mxGeometry x="-0.0267" y="-4" relative="1" as="geometry">
            <mxPoint x="-2" as="offset" />
          </mxGeometry>
        </mxCell>
        <mxCell id="-aFVhoJqZaJN3G_nW5kC-41" value="4" style="ellipse;whiteSpace=wrap;html=1;aspect=fixed;" parent="1" vertex="1">
          <mxGeometry x="410" y="220" width="30" height="30" as="geometry" />
        </mxCell>
        <mxCell id="-aFVhoJqZaJN3G_nW5kC-42" value="2" style="ellipse;whiteSpace=wrap;html=1;aspect=fixed;" parent="1" vertex="1">
          <mxGeometry x="200" y="220" width="30" height="30" as="geometry" />
        </mxCell>
        <mxCell id="-aFVhoJqZaJN3G_nW5kC-43" style="edgeStyle=orthogonalEdgeStyle;curved=1;rounded=0;orthogonalLoop=1;jettySize=auto;html=1;exitX=1;exitY=0.5;exitDx=0;exitDy=0;strokeColor=default;align=center;verticalAlign=middle;fontFamily=Helvetica;fontSize=11;fontColor=default;labelBackgroundColor=default;endArrow=classic;" parent="1" source="-aFVhoJqZaJN3G_nW5kC-47" target="-aFVhoJqZaJN3G_nW5kC-52" edge="1">
          <mxGeometry relative="1" as="geometry" />
        </mxCell>
        <mxCell id="-aFVhoJqZaJN3G_nW5kC-44" value="d" style="edgeLabel;html=1;align=center;verticalAlign=middle;resizable=0;points=[];fontFamily=Helvetica;fontSize=11;fontColor=default;labelBackgroundColor=default;" parent="-aFVhoJqZaJN3G_nW5kC-43" vertex="1" connectable="0">
          <mxGeometry x="-0.125" y="-4" relative="1" as="geometry">
            <mxPoint x="5" y="-19" as="offset" />
          </mxGeometry>
        </mxCell>
        <mxCell id="-aFVhoJqZaJN3G_nW5kC-45" value="" style="edgeStyle=orthogonalEdgeStyle;curved=1;rounded=0;orthogonalLoop=1;jettySize=auto;html=1;strokeColor=default;align=center;verticalAlign=middle;fontFamily=Helvetica;fontSize=11;fontColor=default;labelBackgroundColor=default;endArrow=none;startArrow=classic;startFill=1;endFill=0;" parent="1" source="-aFVhoJqZaJN3G_nW5kC-47" target="-aFVhoJqZaJN3G_nW5kC-58" edge="1">
          <mxGeometry relative="1" as="geometry" />
        </mxCell>
        <mxCell id="-aFVhoJqZaJN3G_nW5kC-46" value="e" style="edgeLabel;html=1;align=center;verticalAlign=middle;resizable=0;points=[];fontFamily=Helvetica;fontSize=11;fontColor=default;labelBackgroundColor=default;" parent="-aFVhoJqZaJN3G_nW5kC-45" vertex="1" connectable="0">
          <mxGeometry x="0.1143" y="-3" relative="1" as="geometry">
            <mxPoint y="-12" as="offset" />
          </mxGeometry>
        </mxCell>
        <mxCell id="-aFVhoJqZaJN3G_nW5kC-47" value="7" style="ellipse;whiteSpace=wrap;html=1;aspect=fixed;" parent="1" vertex="1">
          <mxGeometry x="720" y="220" width="30" height="30" as="geometry" />
        </mxCell>
        <mxCell id="-aFVhoJqZaJN3G_nW5kC-48" value="" style="edgeStyle=orthogonalEdgeStyle;curved=1;rounded=0;orthogonalLoop=1;jettySize=auto;html=1;strokeColor=default;align=center;verticalAlign=middle;fontFamily=Helvetica;fontSize=11;fontColor=default;labelBackgroundColor=default;endArrow=classic;" parent="1" source="-aFVhoJqZaJN3G_nW5kC-52" target="-aFVhoJqZaJN3G_nW5kC-55" edge="1">
          <mxGeometry relative="1" as="geometry" />
        </mxCell>
        <mxCell id="-aFVhoJqZaJN3G_nW5kC-49" value="e" style="edgeLabel;html=1;align=center;verticalAlign=middle;resizable=0;points=[];fontFamily=Helvetica;fontSize=11;fontColor=default;labelBackgroundColor=default;" parent="-aFVhoJqZaJN3G_nW5kC-48" vertex="1" connectable="0">
          <mxGeometry x="-0.0667" y="4" relative="1" as="geometry">
            <mxPoint x="2" y="-11" as="offset" />
          </mxGeometry>
        </mxCell>
        <mxCell id="-aFVhoJqZaJN3G_nW5kC-50" style="edgeStyle=orthogonalEdgeStyle;curved=1;rounded=0;orthogonalLoop=1;jettySize=auto;html=1;exitX=0.5;exitY=0;exitDx=0;exitDy=0;entryX=0.5;entryY=0;entryDx=0;entryDy=0;strokeColor=default;align=center;verticalAlign=middle;fontFamily=Helvetica;fontSize=11;fontColor=default;labelBackgroundColor=default;endArrow=classic;" parent="1" source="-aFVhoJqZaJN3G_nW5kC-52" target="-aFVhoJqZaJN3G_nW5kC-47" edge="1">
          <mxGeometry relative="1" as="geometry" />
        </mxCell>
        <mxCell id="-aFVhoJqZaJN3G_nW5kC-51" value="e" style="edgeLabel;html=1;align=center;verticalAlign=middle;resizable=0;points=[];fontFamily=Helvetica;fontSize=11;fontColor=default;labelBackgroundColor=default;" parent="-aFVhoJqZaJN3G_nW5kC-50" vertex="1" connectable="0">
          <mxGeometry x="-0.0267" y="-4" relative="1" as="geometry">
            <mxPoint x="-2" as="offset" />
          </mxGeometry>
        </mxCell>
        <mxCell id="-aFVhoJqZaJN3G_nW5kC-52" value="8" style="ellipse;whiteSpace=wrap;html=1;aspect=fixed;" parent="1" vertex="1">
          <mxGeometry x="830" y="220" width="30" height="30" as="geometry" />
        </mxCell>
        <mxCell id="-aFVhoJqZaJN3G_nW5kC-53" style="edgeStyle=orthogonalEdgeStyle;curved=1;rounded=0;orthogonalLoop=1;jettySize=auto;html=1;exitX=1;exitY=0.5;exitDx=0;exitDy=0;strokeColor=default;align=center;verticalAlign=middle;fontFamily=Helvetica;fontSize=11;fontColor=default;labelBackgroundColor=default;endArrow=classic;" parent="1" source="-aFVhoJqZaJN3G_nW5kC-55" target="6540f27kuqzh19--YJmQ-2" edge="1">
          <mxGeometry relative="1" as="geometry">
            <mxPoint x="1015" y="300" as="targetPoint" />
          </mxGeometry>
        </mxCell>
        <mxCell id="-aFVhoJqZaJN3G_nW5kC-54" value="e" style="edgeLabel;html=1;align=center;verticalAlign=middle;resizable=0;points=[];fontFamily=Helvetica;fontSize=11;fontColor=default;labelBackgroundColor=default;" parent="-aFVhoJqZaJN3G_nW5kC-53" vertex="1" connectable="0">
          <mxGeometry x="-0.3043" y="-9" relative="1" as="geometry">
            <mxPoint x="14" y="-9" as="offset" />
          </mxGeometry>
        </mxCell>
        <mxCell id="-aFVhoJqZaJN3G_nW5kC-55" value="9" style="ellipse;whiteSpace=wrap;html=1;aspect=fixed;" parent="1" vertex="1">
          <mxGeometry x="920" y="220" width="30" height="30" as="geometry" />
        </mxCell>
        <mxCell id="-aFVhoJqZaJN3G_nW5kC-56" style="edgeStyle=orthogonalEdgeStyle;curved=1;rounded=0;orthogonalLoop=1;jettySize=auto;html=1;exitX=0.5;exitY=1;exitDx=0;exitDy=0;entryX=0.5;entryY=1;entryDx=0;entryDy=0;strokeColor=default;align=center;verticalAlign=middle;fontFamily=Helvetica;fontSize=11;fontColor=default;labelBackgroundColor=default;endArrow=classic;" parent="1" source="-aFVhoJqZaJN3G_nW5kC-58" target="-aFVhoJqZaJN3G_nW5kC-55" edge="1">
          <mxGeometry relative="1" as="geometry" />
        </mxCell>
        <mxCell id="-aFVhoJqZaJN3G_nW5kC-57" value="e" style="edgeLabel;html=1;align=center;verticalAlign=middle;resizable=0;points=[];fontFamily=Helvetica;fontSize=11;fontColor=default;labelBackgroundColor=default;" parent="-aFVhoJqZaJN3G_nW5kC-56" vertex="1" connectable="0">
          <mxGeometry x="0.0353" y="-3" relative="1" as="geometry">
            <mxPoint y="7" as="offset" />
          </mxGeometry>
        </mxCell>
        <mxCell id="-aFVhoJqZaJN3G_nW5kC-58" value="6" style="ellipse;whiteSpace=wrap;html=1;aspect=fixed;" parent="1" vertex="1">
          <mxGeometry x="620" y="220" width="30" height="30" as="geometry" />
        </mxCell>
        <mxCell id="-aFVhoJqZaJN3G_nW5kC-59" style="edgeStyle=orthogonalEdgeStyle;curved=1;rounded=0;orthogonalLoop=1;jettySize=auto;html=1;exitX=1;exitY=0.5;exitDx=0;exitDy=0;strokeColor=default;align=center;verticalAlign=middle;fontFamily=Helvetica;fontSize=11;fontColor=default;labelBackgroundColor=default;endArrow=classic;" parent="1" source="-aFVhoJqZaJN3G_nW5kC-63" target="-aFVhoJqZaJN3G_nW5kC-68" edge="1">
          <mxGeometry relative="1" as="geometry" />
        </mxCell>
        <mxCell id="-aFVhoJqZaJN3G_nW5kC-60" value="d" style="edgeLabel;html=1;align=center;verticalAlign=middle;resizable=0;points=[];fontFamily=Helvetica;fontSize=11;fontColor=default;labelBackgroundColor=default;" parent="-aFVhoJqZaJN3G_nW5kC-59" vertex="1" connectable="0">
          <mxGeometry x="-0.125" y="-4" relative="1" as="geometry">
            <mxPoint x="5" y="-19" as="offset" />
          </mxGeometry>
        </mxCell>
        <mxCell id="-aFVhoJqZaJN3G_nW5kC-61" value="" style="edgeStyle=orthogonalEdgeStyle;curved=1;rounded=0;orthogonalLoop=1;jettySize=auto;html=1;strokeColor=default;align=center;verticalAlign=middle;fontFamily=Helvetica;fontSize=11;fontColor=default;labelBackgroundColor=default;endArrow=none;startArrow=classic;startFill=1;endFill=0;" parent="1" source="-aFVhoJqZaJN3G_nW5kC-63" target="-aFVhoJqZaJN3G_nW5kC-72" edge="1">
          <mxGeometry relative="1" as="geometry" />
        </mxCell>
        <mxCell id="-aFVhoJqZaJN3G_nW5kC-62" value="e" style="edgeLabel;html=1;align=center;verticalAlign=middle;resizable=0;points=[];fontFamily=Helvetica;fontSize=11;fontColor=default;labelBackgroundColor=default;" parent="-aFVhoJqZaJN3G_nW5kC-61" vertex="1" connectable="0">
          <mxGeometry x="0.1143" y="-3" relative="1" as="geometry">
            <mxPoint y="-12" as="offset" />
          </mxGeometry>
        </mxCell>
        <mxCell id="-aFVhoJqZaJN3G_nW5kC-63" value="16" style="ellipse;whiteSpace=wrap;html=1;aspect=fixed;" parent="1" vertex="1">
          <mxGeometry x="720" y="390" width="30" height="30" as="geometry" />
        </mxCell>
        <mxCell id="-aFVhoJqZaJN3G_nW5kC-64" value="" style="edgeStyle=orthogonalEdgeStyle;curved=1;rounded=0;orthogonalLoop=1;jettySize=auto;html=1;strokeColor=default;align=center;verticalAlign=middle;fontFamily=Helvetica;fontSize=11;fontColor=default;labelBackgroundColor=default;endArrow=classic;" parent="1" source="-aFVhoJqZaJN3G_nW5kC-68" target="-aFVhoJqZaJN3G_nW5kC-71" edge="1">
          <mxGeometry relative="1" as="geometry" />
        </mxCell>
        <mxCell id="-aFVhoJqZaJN3G_nW5kC-65" value="e" style="edgeLabel;html=1;align=center;verticalAlign=middle;resizable=0;points=[];fontFamily=Helvetica;fontSize=11;fontColor=default;labelBackgroundColor=default;" parent="-aFVhoJqZaJN3G_nW5kC-64" vertex="1" connectable="0">
          <mxGeometry x="-0.0667" y="4" relative="1" as="geometry">
            <mxPoint x="2" y="-11" as="offset" />
          </mxGeometry>
        </mxCell>
        <mxCell id="-aFVhoJqZaJN3G_nW5kC-66" style="edgeStyle=orthogonalEdgeStyle;curved=1;rounded=0;orthogonalLoop=1;jettySize=auto;html=1;exitX=0.5;exitY=0;exitDx=0;exitDy=0;entryX=0.5;entryY=0;entryDx=0;entryDy=0;strokeColor=default;align=center;verticalAlign=middle;fontFamily=Helvetica;fontSize=11;fontColor=default;labelBackgroundColor=default;endArrow=classic;" parent="1" source="-aFVhoJqZaJN3G_nW5kC-68" target="-aFVhoJqZaJN3G_nW5kC-63" edge="1">
          <mxGeometry relative="1" as="geometry" />
        </mxCell>
        <mxCell id="-aFVhoJqZaJN3G_nW5kC-67" value="e" style="edgeLabel;html=1;align=center;verticalAlign=middle;resizable=0;points=[];fontFamily=Helvetica;fontSize=11;fontColor=default;labelBackgroundColor=default;" parent="-aFVhoJqZaJN3G_nW5kC-66" vertex="1" connectable="0">
          <mxGeometry x="-0.0267" y="-4" relative="1" as="geometry">
            <mxPoint x="-2" as="offset" />
          </mxGeometry>
        </mxCell>
        <mxCell id="-aFVhoJqZaJN3G_nW5kC-68" value="17" style="ellipse;whiteSpace=wrap;html=1;aspect=fixed;" parent="1" vertex="1">
          <mxGeometry x="830" y="390" width="30" height="30" as="geometry" />
        </mxCell>
        <mxCell id="-aFVhoJqZaJN3G_nW5kC-69" style="edgeStyle=orthogonalEdgeStyle;curved=1;rounded=0;orthogonalLoop=1;jettySize=auto;html=1;exitX=1;exitY=0.5;exitDx=0;exitDy=0;strokeColor=default;align=center;verticalAlign=middle;fontFamily=Helvetica;fontSize=11;fontColor=default;labelBackgroundColor=default;endArrow=classic;" parent="1" source="-aFVhoJqZaJN3G_nW5kC-71" target="6540f27kuqzh19--YJmQ-2" edge="1">
          <mxGeometry relative="1" as="geometry">
            <mxPoint x="1015" y="330" as="targetPoint" />
            <Array as="points">
              <mxPoint x="1025" y="405" />
            </Array>
          </mxGeometry>
        </mxCell>
        <mxCell id="-aFVhoJqZaJN3G_nW5kC-70" value="e" style="edgeLabel;html=1;align=center;verticalAlign=middle;resizable=0;points=[];fontFamily=Helvetica;fontSize=11;fontColor=default;labelBackgroundColor=default;" parent="-aFVhoJqZaJN3G_nW5kC-69" vertex="1" connectable="0">
          <mxGeometry x="0.1481" y="15" relative="1" as="geometry">
            <mxPoint as="offset" />
          </mxGeometry>
        </mxCell>
        <mxCell id="-aFVhoJqZaJN3G_nW5kC-71" value="18" style="ellipse;whiteSpace=wrap;html=1;aspect=fixed;" parent="1" vertex="1">
          <mxGeometry x="920" y="390" width="30" height="30" as="geometry" />
        </mxCell>
        <mxCell id="-aFVhoJqZaJN3G_nW5kC-72" value="15" style="ellipse;whiteSpace=wrap;html=1;aspect=fixed;" parent="1" vertex="1">
          <mxGeometry x="620" y="390" width="30" height="30" as="geometry" />
        </mxCell>
        <mxCell id="6540f27kuqzh19--YJmQ-3" style="edgeStyle=none;rounded=0;orthogonalLoop=1;jettySize=auto;html=1;exitX=1;exitY=0.5;exitDx=0;exitDy=0;strokeColor=default;align=center;verticalAlign=middle;fontFamily=Helvetica;fontSize=11;fontColor=default;labelBackgroundColor=default;endArrow=classic;entryX=0;entryY=0.5;entryDx=0;entryDy=0;" edge="1" parent="1" source="6540f27kuqzh19--YJmQ-2" target="-aFVhoJqZaJN3G_nW5kC-6">
          <mxGeometry relative="1" as="geometry" />
        </mxCell>
        <mxCell id="6540f27kuqzh19--YJmQ-4" value="Пробел" style="edgeLabel;html=1;align=center;verticalAlign=middle;resizable=0;points=[];fontFamily=Helvetica;fontSize=11;fontColor=default;labelBackgroundColor=default;" vertex="1" connectable="0" parent="6540f27kuqzh19--YJmQ-3">
          <mxGeometry x="0.0199" y="1" relative="1" as="geometry">
            <mxPoint as="offset" />
          </mxGeometry>
        </mxCell>
        <mxCell id="6540f27kuqzh19--YJmQ-2" value="10" style="ellipse;whiteSpace=wrap;html=1;aspect=fixed;" vertex="1" parent="1">
          <mxGeometry x="1010" y="300" width="30" height="30" as="geometry" />
        </mxCell>
      </root>
    </mxGraphModel>
  </diagram>
  <diagram id="xykPL_-6A7ym3zQu7KSq" name="Страница — 3">
    <mxGraphModel dx="882" dy="577" grid="1" gridSize="10" guides="1" tooltips="1" connect="1" arrows="1" fold="1" page="1" pageScale="1" pageWidth="827" pageHeight="1169" math="0" shadow="0">
      <root>
        <mxCell id="0" />
        <mxCell id="1" parent="0" />
        <mxCell id="mr5xLcIYP3-2WQN_mGLJ-3" style="rounded=0;orthogonalLoop=1;jettySize=auto;html=1;exitX=1;exitY=0;exitDx=0;exitDy=0;entryX=0;entryY=1;entryDx=0;entryDy=0;strokeColor=default;align=center;verticalAlign=middle;fontFamily=Helvetica;fontSize=11;fontColor=default;labelBackgroundColor=default;endArrow=classic;" parent="1" source="mr5xLcIYP3-2WQN_mGLJ-1" target="mr5xLcIYP3-2WQN_mGLJ-2" edge="1">
          <mxGeometry relative="1" as="geometry" />
        </mxCell>
        <mxCell id="mr5xLcIYP3-2WQN_mGLJ-4" value="m" style="edgeLabel;html=1;align=center;verticalAlign=middle;resizable=0;points=[];fontFamily=Helvetica;fontSize=11;fontColor=default;labelBackgroundColor=default;" parent="mr5xLcIYP3-2WQN_mGLJ-3" vertex="1" connectable="0">
          <mxGeometry x="-0.0029" y="3" relative="1" as="geometry">
            <mxPoint x="-9" y="-7" as="offset" />
          </mxGeometry>
        </mxCell>
        <mxCell id="mr5xLcIYP3-2WQN_mGLJ-6" style="edgeStyle=none;rounded=0;orthogonalLoop=1;jettySize=auto;html=1;exitX=1;exitY=0.5;exitDx=0;exitDy=0;entryX=0;entryY=0.5;entryDx=0;entryDy=0;strokeColor=default;align=center;verticalAlign=middle;fontFamily=Helvetica;fontSize=11;fontColor=default;labelBackgroundColor=default;endArrow=classic;" parent="1" source="mr5xLcIYP3-2WQN_mGLJ-1" target="mr5xLcIYP3-2WQN_mGLJ-5" edge="1">
          <mxGeometry relative="1" as="geometry" />
        </mxCell>
        <mxCell id="mr5xLcIYP3-2WQN_mGLJ-7" value="d" style="edgeLabel;html=1;align=center;verticalAlign=middle;resizable=0;points=[];fontFamily=Helvetica;fontSize=11;fontColor=default;labelBackgroundColor=default;" parent="mr5xLcIYP3-2WQN_mGLJ-6" vertex="1" connectable="0">
          <mxGeometry x="-0.0787" y="3" relative="1" as="geometry">
            <mxPoint x="83" y="-2" as="offset" />
          </mxGeometry>
        </mxCell>
        <mxCell id="mr5xLcIYP3-2WQN_mGLJ-9" style="edgeStyle=none;rounded=0;orthogonalLoop=1;jettySize=auto;html=1;exitX=1;exitY=1;exitDx=0;exitDy=0;strokeColor=default;align=center;verticalAlign=middle;fontFamily=Helvetica;fontSize=11;fontColor=default;labelBackgroundColor=default;endArrow=classic;" parent="1" source="mr5xLcIYP3-2WQN_mGLJ-1" target="mr5xLcIYP3-2WQN_mGLJ-8" edge="1">
          <mxGeometry relative="1" as="geometry" />
        </mxCell>
        <mxCell id="mr5xLcIYP3-2WQN_mGLJ-10" value="t" style="edgeLabel;html=1;align=center;verticalAlign=middle;resizable=0;points=[];fontFamily=Helvetica;fontSize=11;fontColor=default;labelBackgroundColor=default;" parent="mr5xLcIYP3-2WQN_mGLJ-9" vertex="1" connectable="0">
          <mxGeometry x="0.0976" y="3" relative="1" as="geometry">
            <mxPoint x="-7" y="-13" as="offset" />
          </mxGeometry>
        </mxCell>
        <mxCell id="mr5xLcIYP3-2WQN_mGLJ-1" value="S0 {0, 1, 2, 3, 11, 12, 14}" style="ellipse;whiteSpace=wrap;html=1;fontFamily=Helvetica;fontSize=11;fontColor=default;labelBackgroundColor=default;" parent="1" vertex="1">
          <mxGeometry x="30" y="240" width="160" height="50" as="geometry" />
        </mxCell>
        <mxCell id="mr5xLcIYP3-2WQN_mGLJ-11" style="edgeStyle=none;rounded=0;orthogonalLoop=1;jettySize=auto;html=1;exitX=0.5;exitY=1;exitDx=0;exitDy=0;strokeColor=default;align=center;verticalAlign=middle;fontFamily=Helvetica;fontSize=11;fontColor=default;labelBackgroundColor=default;endArrow=classic;" parent="1" source="mr5xLcIYP3-2WQN_mGLJ-2" target="mr5xLcIYP3-2WQN_mGLJ-5" edge="1">
          <mxGeometry relative="1" as="geometry" />
        </mxCell>
        <mxCell id="mr5xLcIYP3-2WQN_mGLJ-12" value="d" style="edgeLabel;html=1;align=center;verticalAlign=middle;resizable=0;points=[];fontFamily=Helvetica;fontSize=11;fontColor=default;labelBackgroundColor=default;" parent="mr5xLcIYP3-2WQN_mGLJ-11" vertex="1" connectable="0">
          <mxGeometry x="-0.0485" y="3" relative="1" as="geometry">
            <mxPoint as="offset" />
          </mxGeometry>
        </mxCell>
        <mxCell id="mr5xLcIYP3-2WQN_mGLJ-13" style="edgeStyle=none;rounded=0;orthogonalLoop=1;jettySize=auto;html=1;exitX=0.5;exitY=1;exitDx=0;exitDy=0;strokeColor=default;align=center;verticalAlign=middle;fontFamily=Helvetica;fontSize=11;fontColor=default;labelBackgroundColor=default;endArrow=classic;" parent="1" source="mr5xLcIYP3-2WQN_mGLJ-2" target="mr5xLcIYP3-2WQN_mGLJ-8" edge="1">
          <mxGeometry relative="1" as="geometry" />
        </mxCell>
        <mxCell id="mr5xLcIYP3-2WQN_mGLJ-14" value="t" style="edgeLabel;html=1;align=center;verticalAlign=middle;resizable=0;points=[];fontFamily=Helvetica;fontSize=11;fontColor=default;labelBackgroundColor=default;" parent="mr5xLcIYP3-2WQN_mGLJ-13" vertex="1" connectable="0">
          <mxGeometry x="-0.721" y="4" relative="1" as="geometry">
            <mxPoint as="offset" />
          </mxGeometry>
        </mxCell>
        <mxCell id="mr5xLcIYP3-2WQN_mGLJ-2" value="S1 {1, 2, 3, 11, 12, 14}" style="ellipse;whiteSpace=wrap;html=1;fontFamily=Helvetica;fontSize=11;fontColor=default;labelBackgroundColor=default;" parent="1" vertex="1">
          <mxGeometry x="210" y="170" width="160" height="50" as="geometry" />
        </mxCell>
        <mxCell id="mr5xLcIYP3-2WQN_mGLJ-18" style="edgeStyle=none;rounded=0;orthogonalLoop=1;jettySize=auto;html=1;exitX=0.5;exitY=1;exitDx=0;exitDy=0;strokeColor=default;align=center;verticalAlign=middle;fontFamily=Helvetica;fontSize=11;fontColor=default;labelBackgroundColor=default;endArrow=classic;" parent="1" source="mr5xLcIYP3-2WQN_mGLJ-5" target="mr5xLcIYP3-2WQN_mGLJ-17" edge="1">
          <mxGeometry relative="1" as="geometry" />
        </mxCell>
        <mxCell id="mr5xLcIYP3-2WQN_mGLJ-19" value="t" style="edgeLabel;html=1;align=center;verticalAlign=middle;resizable=0;points=[];fontFamily=Helvetica;fontSize=11;fontColor=default;labelBackgroundColor=default;" parent="mr5xLcIYP3-2WQN_mGLJ-18" vertex="1" connectable="0">
          <mxGeometry x="-0.5356" relative="1" as="geometry">
            <mxPoint as="offset" />
          </mxGeometry>
        </mxCell>
        <mxCell id="mr5xLcIYP3-2WQN_mGLJ-5" value="S2 {3, 4, 5, 12, 13, 14}" style="ellipse;whiteSpace=wrap;html=1;fontFamily=Helvetica;fontSize=11;fontColor=default;labelBackgroundColor=default;" parent="1" vertex="1">
          <mxGeometry x="400" y="240" width="160" height="50" as="geometry" />
        </mxCell>
        <mxCell id="mr5xLcIYP3-2WQN_mGLJ-21" style="edgeStyle=none;rounded=0;orthogonalLoop=1;jettySize=auto;html=1;exitX=0.5;exitY=1;exitDx=0;exitDy=0;strokeColor=default;align=center;verticalAlign=middle;fontFamily=Helvetica;fontSize=11;fontColor=default;labelBackgroundColor=default;endArrow=classic;" parent="1" source="mr5xLcIYP3-2WQN_mGLJ-8" target="mr5xLcIYP3-2WQN_mGLJ-20" edge="1">
          <mxGeometry relative="1" as="geometry" />
        </mxCell>
        <mxCell id="mr5xLcIYP3-2WQN_mGLJ-22" value="d" style="edgeLabel;html=1;align=center;verticalAlign=middle;resizable=0;points=[];fontFamily=Helvetica;fontSize=11;fontColor=default;labelBackgroundColor=default;" parent="mr5xLcIYP3-2WQN_mGLJ-21" vertex="1" connectable="0">
          <mxGeometry x="-0.3601" y="3" relative="1" as="geometry">
            <mxPoint as="offset" />
          </mxGeometry>
        </mxCell>
        <mxCell id="mr5xLcIYP3-2WQN_mGLJ-8" value="S3 {15, 16}" style="ellipse;whiteSpace=wrap;html=1;fontFamily=Helvetica;fontSize=11;fontColor=default;labelBackgroundColor=default;" parent="1" vertex="1">
          <mxGeometry x="220" y="320" width="160" height="50" as="geometry" />
        </mxCell>
        <mxCell id="mr5xLcIYP3-2WQN_mGLJ-15" style="edgeStyle=orthogonalEdgeStyle;rounded=0;orthogonalLoop=1;jettySize=auto;html=1;exitX=0.5;exitY=0;exitDx=0;exitDy=0;strokeColor=default;align=center;verticalAlign=middle;fontFamily=Helvetica;fontSize=11;fontColor=default;labelBackgroundColor=default;endArrow=classic;curved=1;entryX=1;entryY=0;entryDx=0;entryDy=0;" parent="1" source="mr5xLcIYP3-2WQN_mGLJ-5" target="mr5xLcIYP3-2WQN_mGLJ-5" edge="1">
          <mxGeometry relative="1" as="geometry">
            <mxPoint x="600" y="140" as="targetPoint" />
            <Array as="points">
              <mxPoint x="480" y="200" />
              <mxPoint x="550" y="200" />
              <mxPoint x="550" y="247" />
            </Array>
          </mxGeometry>
        </mxCell>
        <mxCell id="mr5xLcIYP3-2WQN_mGLJ-16" value="d" style="edgeLabel;html=1;align=center;verticalAlign=middle;resizable=0;points=[];fontFamily=Helvetica;fontSize=11;fontColor=default;labelBackgroundColor=default;" parent="mr5xLcIYP3-2WQN_mGLJ-15" vertex="1" connectable="0">
          <mxGeometry x="-0.0785" y="2" relative="1" as="geometry">
            <mxPoint as="offset" />
          </mxGeometry>
        </mxCell>
        <mxCell id="mr5xLcIYP3-2WQN_mGLJ-24" style="edgeStyle=none;rounded=0;orthogonalLoop=1;jettySize=auto;html=1;exitX=0.5;exitY=1;exitDx=0;exitDy=0;strokeColor=default;align=center;verticalAlign=middle;fontFamily=Helvetica;fontSize=11;fontColor=default;labelBackgroundColor=default;endArrow=classic;" parent="1" source="mr5xLcIYP3-2WQN_mGLJ-17" target="mr5xLcIYP3-2WQN_mGLJ-23" edge="1">
          <mxGeometry relative="1" as="geometry" />
        </mxCell>
        <mxCell id="mr5xLcIYP3-2WQN_mGLJ-25" value="d" style="edgeLabel;html=1;align=center;verticalAlign=middle;resizable=0;points=[];fontFamily=Helvetica;fontSize=11;fontColor=default;labelBackgroundColor=default;" parent="mr5xLcIYP3-2WQN_mGLJ-24" vertex="1" connectable="0">
          <mxGeometry x="-0.0107" relative="1" as="geometry">
            <mxPoint as="offset" />
          </mxGeometry>
        </mxCell>
        <mxCell id="mr5xLcIYP3-2WQN_mGLJ-17" value="S4 {6, 9, 10, 15, 16}" style="ellipse;whiteSpace=wrap;html=1;fontFamily=Helvetica;fontSize=11;fontColor=default;labelBackgroundColor=default;" parent="1" vertex="1">
          <mxGeometry x="430" y="380" width="160" height="50" as="geometry" />
        </mxCell>
        <mxCell id="mr5xLcIYP3-2WQN_mGLJ-29" style="edgeStyle=orthogonalEdgeStyle;rounded=0;orthogonalLoop=1;jettySize=auto;html=1;exitX=0;exitY=1;exitDx=0;exitDy=0;strokeColor=default;align=center;verticalAlign=middle;fontFamily=Helvetica;fontSize=11;fontColor=default;labelBackgroundColor=default;endArrow=classic;curved=1;entryX=0.5;entryY=1;entryDx=0;entryDy=0;" parent="1" source="mr5xLcIYP3-2WQN_mGLJ-20" target="mr5xLcIYP3-2WQN_mGLJ-20" edge="1">
          <mxGeometry relative="1" as="geometry">
            <mxPoint x="310" y="480" as="targetPoint" />
            <Array as="points">
              <mxPoint x="253" y="490" />
              <mxPoint x="311" y="490" />
            </Array>
          </mxGeometry>
        </mxCell>
        <mxCell id="mr5xLcIYP3-2WQN_mGLJ-30" value="d" style="edgeLabel;html=1;align=center;verticalAlign=middle;resizable=0;points=[];fontFamily=Helvetica;fontSize=11;fontColor=default;labelBackgroundColor=default;" parent="mr5xLcIYP3-2WQN_mGLJ-29" vertex="1" connectable="0">
          <mxGeometry x="-0.2646" y="2" relative="1" as="geometry">
            <mxPoint as="offset" />
          </mxGeometry>
        </mxCell>
        <mxCell id="mr5xLcIYP3-2WQN_mGLJ-20" value="S5 {16, 17, 18, 10}" style="ellipse;whiteSpace=wrap;html=1;fontFamily=Helvetica;fontSize=11;fontColor=default;labelBackgroundColor=default;" parent="1" vertex="1">
          <mxGeometry x="230" y="420" width="160" height="50" as="geometry" />
        </mxCell>
        <mxCell id="mr5xLcIYP3-2WQN_mGLJ-23" value="S6 {7, 8, 9, 10, 16, 17, 18, 10}" style="ellipse;whiteSpace=wrap;html=1;fontFamily=Helvetica;fontSize=11;fontColor=default;labelBackgroundColor=default;" parent="1" vertex="1">
          <mxGeometry x="440" y="490" width="160" height="50" as="geometry" />
        </mxCell>
        <mxCell id="mr5xLcIYP3-2WQN_mGLJ-31" style="edgeStyle=orthogonalEdgeStyle;rounded=0;orthogonalLoop=1;jettySize=auto;html=1;exitX=0;exitY=1;exitDx=0;exitDy=0;entryX=0.5;entryY=1;entryDx=0;entryDy=0;strokeColor=default;align=center;verticalAlign=middle;fontFamily=Helvetica;fontSize=11;fontColor=default;labelBackgroundColor=default;endArrow=classic;curved=1;" parent="1" source="mr5xLcIYP3-2WQN_mGLJ-23" target="mr5xLcIYP3-2WQN_mGLJ-23" edge="1">
          <mxGeometry relative="1" as="geometry">
            <Array as="points">
              <mxPoint x="463" y="570" />
              <mxPoint x="520" y="570" />
            </Array>
          </mxGeometry>
        </mxCell>
        <mxCell id="mr5xLcIYP3-2WQN_mGLJ-32" value="d" style="edgeLabel;html=1;align=center;verticalAlign=middle;resizable=0;points=[];fontFamily=Helvetica;fontSize=11;fontColor=default;labelBackgroundColor=default;" parent="mr5xLcIYP3-2WQN_mGLJ-31" vertex="1" connectable="0">
          <mxGeometry x="-0.0221" y="-3" relative="1" as="geometry">
            <mxPoint as="offset" />
          </mxGeometry>
        </mxCell>
        <mxCell id="i0jQz3WvRk6u_sj0pJ7Q-1" value="S7 {19}" style="ellipse;whiteSpace=wrap;html=1;fontFamily=Helvetica;fontSize=11;fontColor=default;labelBackgroundColor=default;" vertex="1" parent="1">
          <mxGeometry x="220" y="550" width="160" height="50" as="geometry" />
        </mxCell>
        <mxCell id="i0jQz3WvRk6u_sj0pJ7Q-2" value="" style="ellipse;whiteSpace=wrap;html=1;fontFamily=Helvetica;fontSize=11;fontColor=default;labelBackgroundColor=default;fillColor=none;" vertex="1" parent="1">
          <mxGeometry x="230" y="560" width="140" height="30" as="geometry" />
        </mxCell>
        <mxCell id="i0jQz3WvRk6u_sj0pJ7Q-3" style="edgeStyle=none;rounded=0;orthogonalLoop=1;jettySize=auto;html=1;exitX=1;exitY=1;exitDx=0;exitDy=0;entryX=0.631;entryY=0.045;entryDx=0;entryDy=0;entryPerimeter=0;strokeColor=default;align=center;verticalAlign=middle;fontFamily=Helvetica;fontSize=11;fontColor=default;labelBackgroundColor=default;endArrow=classic;" edge="1" parent="1" source="mr5xLcIYP3-2WQN_mGLJ-20" target="i0jQz3WvRk6u_sj0pJ7Q-1">
          <mxGeometry relative="1" as="geometry" />
        </mxCell>
        <mxCell id="i0jQz3WvRk6u_sj0pJ7Q-6" value="пробел" style="edgeLabel;html=1;align=center;verticalAlign=middle;resizable=0;points=[];fontFamily=Helvetica;fontSize=11;fontColor=default;labelBackgroundColor=default;" vertex="1" connectable="0" parent="i0jQz3WvRk6u_sj0pJ7Q-3">
          <mxGeometry x="-0.1902" y="-2" relative="1" as="geometry">
            <mxPoint as="offset" />
          </mxGeometry>
        </mxCell>
        <mxCell id="i0jQz3WvRk6u_sj0pJ7Q-4" style="edgeStyle=none;rounded=0;orthogonalLoop=1;jettySize=auto;html=1;exitX=0;exitY=1;exitDx=0;exitDy=0;entryX=0.756;entryY=0.09;entryDx=0;entryDy=0;entryPerimeter=0;strokeColor=default;align=center;verticalAlign=middle;fontFamily=Helvetica;fontSize=11;fontColor=default;labelBackgroundColor=default;endArrow=classic;" edge="1" parent="1" source="mr5xLcIYP3-2WQN_mGLJ-17" target="i0jQz3WvRk6u_sj0pJ7Q-1">
          <mxGeometry relative="1" as="geometry" />
        </mxCell>
        <mxCell id="i0jQz3WvRk6u_sj0pJ7Q-7" value="пробел" style="edgeLabel;html=1;align=center;verticalAlign=middle;resizable=0;points=[];fontFamily=Helvetica;fontSize=11;fontColor=default;labelBackgroundColor=default;" vertex="1" connectable="0" parent="i0jQz3WvRk6u_sj0pJ7Q-4">
          <mxGeometry x="-0.2567" y="1" relative="1" as="geometry">
            <mxPoint as="offset" />
          </mxGeometry>
        </mxCell>
        <mxCell id="i0jQz3WvRk6u_sj0pJ7Q-5" style="edgeStyle=none;rounded=0;orthogonalLoop=1;jettySize=auto;html=1;exitX=0;exitY=0.5;exitDx=0;exitDy=0;entryX=0.937;entryY=0.179;entryDx=0;entryDy=0;entryPerimeter=0;strokeColor=default;align=center;verticalAlign=middle;fontFamily=Helvetica;fontSize=11;fontColor=default;labelBackgroundColor=default;endArrow=classic;" edge="1" parent="1" source="mr5xLcIYP3-2WQN_mGLJ-23" target="i0jQz3WvRk6u_sj0pJ7Q-1">
          <mxGeometry relative="1" as="geometry" />
        </mxCell>
        <mxCell id="i0jQz3WvRk6u_sj0pJ7Q-8" value="пробел" style="edgeLabel;html=1;align=center;verticalAlign=middle;resizable=0;points=[];fontFamily=Helvetica;fontSize=11;fontColor=default;labelBackgroundColor=default;" vertex="1" connectable="0" parent="i0jQz3WvRk6u_sj0pJ7Q-5">
          <mxGeometry x="-0.1492" y="4" relative="1" as="geometry">
            <mxPoint y="-1" as="offset" />
          </mxGeometry>
        </mxCell>
      </root>
    </mxGraphModel>
  </diagram>
  <diagram id="20MRl_WzMxpijdNUizZP" name="Страница — 4">
    <mxGraphModel dx="780" dy="504" grid="1" gridSize="10" guides="1" tooltips="1" connect="1" arrows="1" fold="1" page="1" pageScale="1" pageWidth="827" pageHeight="1169" math="0" shadow="0">
      <root>
        <mxCell id="0" />
        <mxCell id="1" parent="0" />
        <mxCell id="kcW8va3yGz1REJU7Dl8P-4" style="edgeStyle=none;rounded=0;orthogonalLoop=1;jettySize=auto;html=1;strokeColor=default;align=center;verticalAlign=middle;fontFamily=Helvetica;fontSize=11;fontColor=default;labelBackgroundColor=default;endArrow=classic;" parent="1" source="G07PlgcpJv_h16Tnx_Fq-1" target="G07PlgcpJv_h16Tnx_Fq-3" edge="1">
          <mxGeometry relative="1" as="geometry" />
        </mxCell>
        <mxCell id="kcW8va3yGz1REJU7Dl8P-5" value="t" style="edgeLabel;html=1;align=center;verticalAlign=middle;resizable=0;points=[];fontFamily=Helvetica;fontSize=11;fontColor=default;labelBackgroundColor=default;" parent="kcW8va3yGz1REJU7Dl8P-4" vertex="1" connectable="0">
          <mxGeometry x="-0.4218" y="1" relative="1" as="geometry">
            <mxPoint as="offset" />
          </mxGeometry>
        </mxCell>
        <mxCell id="kcW8va3yGz1REJU7Dl8P-6" style="edgeStyle=none;rounded=0;orthogonalLoop=1;jettySize=auto;html=1;strokeColor=default;align=center;verticalAlign=middle;fontFamily=Helvetica;fontSize=11;fontColor=default;labelBackgroundColor=default;endArrow=classic;" parent="1" source="G07PlgcpJv_h16Tnx_Fq-1" target="G07PlgcpJv_h16Tnx_Fq-4" edge="1">
          <mxGeometry relative="1" as="geometry" />
        </mxCell>
        <mxCell id="kcW8va3yGz1REJU7Dl8P-7" value="d" style="edgeLabel;html=1;align=center;verticalAlign=middle;resizable=0;points=[];fontFamily=Helvetica;fontSize=11;fontColor=default;labelBackgroundColor=default;" parent="kcW8va3yGz1REJU7Dl8P-6" vertex="1" connectable="0">
          <mxGeometry x="-0.3599" y="1" relative="1" as="geometry">
            <mxPoint as="offset" />
          </mxGeometry>
        </mxCell>
        <mxCell id="G07PlgcpJv_h16Tnx_Fq-1" value="1" style="ellipse;whiteSpace=wrap;html=1;aspect=fixed;" parent="1" vertex="1">
          <mxGeometry x="280" y="215" width="50" height="50" as="geometry" />
        </mxCell>
        <mxCell id="kcW8va3yGz1REJU7Dl8P-8" style="edgeStyle=none;rounded=0;orthogonalLoop=1;jettySize=auto;html=1;strokeColor=default;align=center;verticalAlign=middle;fontFamily=Helvetica;fontSize=11;fontColor=default;labelBackgroundColor=default;endArrow=classic;" parent="1" source="G07PlgcpJv_h16Tnx_Fq-3" target="kcW8va3yGz1REJU7Dl8P-3" edge="1">
          <mxGeometry relative="1" as="geometry" />
        </mxCell>
        <mxCell id="kcW8va3yGz1REJU7Dl8P-9" value="d" style="edgeLabel;html=1;align=center;verticalAlign=middle;resizable=0;points=[];fontFamily=Helvetica;fontSize=11;fontColor=default;labelBackgroundColor=default;" parent="kcW8va3yGz1REJU7Dl8P-8" vertex="1" connectable="0">
          <mxGeometry x="-0.1389" y="-2" relative="1" as="geometry">
            <mxPoint as="offset" />
          </mxGeometry>
        </mxCell>
        <mxCell id="G07PlgcpJv_h16Tnx_Fq-3" value="2" style="ellipse;whiteSpace=wrap;html=1;aspect=fixed;" parent="1" vertex="1">
          <mxGeometry x="370" y="160" width="50" height="50" as="geometry" />
        </mxCell>
        <mxCell id="kcW8va3yGz1REJU7Dl8P-10" style="edgeStyle=none;rounded=0;orthogonalLoop=1;jettySize=auto;html=1;strokeColor=default;align=center;verticalAlign=middle;fontFamily=Helvetica;fontSize=11;fontColor=default;labelBackgroundColor=default;endArrow=classic;" parent="1" source="G07PlgcpJv_h16Tnx_Fq-4" target="kcW8va3yGz1REJU7Dl8P-3" edge="1">
          <mxGeometry relative="1" as="geometry" />
        </mxCell>
        <mxCell id="kcW8va3yGz1REJU7Dl8P-11" value="t" style="edgeLabel;html=1;align=center;verticalAlign=middle;resizable=0;points=[];fontFamily=Helvetica;fontSize=11;fontColor=default;labelBackgroundColor=default;" parent="kcW8va3yGz1REJU7Dl8P-10" vertex="1" connectable="0">
          <mxGeometry x="0.1609" y="3" relative="1" as="geometry">
            <mxPoint as="offset" />
          </mxGeometry>
        </mxCell>
        <mxCell id="G07PlgcpJv_h16Tnx_Fq-4" value="3" style="ellipse;whiteSpace=wrap;html=1;aspect=fixed;" parent="1" vertex="1">
          <mxGeometry x="190" y="280" width="50" height="50" as="geometry" />
        </mxCell>
        <mxCell id="ONmmwVFTyyFBLsTzM0xc-1" value="" style="ellipse;whiteSpace=wrap;html=1;aspect=fixed;shadow=0;fillColor=none;" parent="1" vertex="1">
          <mxGeometry x="450" y="200" width="80" height="80" as="geometry" />
        </mxCell>
        <mxCell id="kcW8va3yGz1REJU7Dl8P-2" value="5" style="ellipse;whiteSpace=wrap;html=1;aspect=fixed;" parent="1" vertex="1">
          <mxGeometry x="465" y="215" width="50" height="50" as="geometry" />
        </mxCell>
        <mxCell id="kcW8va3yGz1REJU7Dl8P-12" style="edgeStyle=none;rounded=0;orthogonalLoop=1;jettySize=auto;html=1;exitX=1;exitY=0.5;exitDx=0;exitDy=0;strokeColor=default;align=center;verticalAlign=middle;fontFamily=Helvetica;fontSize=11;fontColor=default;labelBackgroundColor=default;endArrow=classic;" parent="1" source="kcW8va3yGz1REJU7Dl8P-3" target="ONmmwVFTyyFBLsTzM0xc-1" edge="1">
          <mxGeometry relative="1" as="geometry" />
        </mxCell>
        <mxCell id="kcW8va3yGz1REJU7Dl8P-13" value="пробел" style="edgeLabel;html=1;align=center;verticalAlign=middle;resizable=0;points=[];fontFamily=Helvetica;fontSize=11;fontColor=default;labelBackgroundColor=default;" parent="kcW8va3yGz1REJU7Dl8P-12" vertex="1" connectable="0">
          <mxGeometry x="0.015" y="-3" relative="1" as="geometry">
            <mxPoint as="offset" />
          </mxGeometry>
        </mxCell>
        <mxCell id="kcW8va3yGz1REJU7Dl8P-3" value="4" style="ellipse;whiteSpace=wrap;html=1;aspect=fixed;" parent="1" vertex="1">
          <mxGeometry x="370" y="280" width="50" height="50" as="geometry" />
        </mxCell>
        <mxCell id="kcW8va3yGz1REJU7Dl8P-14" style="edgeStyle=orthogonalEdgeStyle;rounded=0;orthogonalLoop=1;jettySize=auto;html=1;exitX=0;exitY=0.5;exitDx=0;exitDy=0;entryX=0.5;entryY=1;entryDx=0;entryDy=0;strokeColor=default;align=center;verticalAlign=middle;fontFamily=Helvetica;fontSize=11;fontColor=default;labelBackgroundColor=default;endArrow=classic;curved=1;" parent="1" source="G07PlgcpJv_h16Tnx_Fq-4" target="G07PlgcpJv_h16Tnx_Fq-4" edge="1">
          <mxGeometry relative="1" as="geometry">
            <Array as="points">
              <mxPoint x="180" y="305" />
              <mxPoint x="180" y="340" />
              <mxPoint x="215" y="340" />
            </Array>
          </mxGeometry>
        </mxCell>
        <mxCell id="kcW8va3yGz1REJU7Dl8P-15" value="d" style="edgeLabel;html=1;align=center;verticalAlign=middle;resizable=0;points=[];fontFamily=Helvetica;fontSize=11;fontColor=default;labelBackgroundColor=default;" parent="kcW8va3yGz1REJU7Dl8P-14" vertex="1" connectable="0">
          <mxGeometry x="-0.1111" y="1" relative="1" as="geometry">
            <mxPoint as="offset" />
          </mxGeometry>
        </mxCell>
        <mxCell id="kcW8va3yGz1REJU7Dl8P-16" style="edgeStyle=orthogonalEdgeStyle;curved=1;rounded=0;orthogonalLoop=1;jettySize=auto;html=1;exitX=0;exitY=1;exitDx=0;exitDy=0;entryX=1;entryY=1;entryDx=0;entryDy=0;strokeColor=default;align=center;verticalAlign=middle;fontFamily=Helvetica;fontSize=11;fontColor=default;labelBackgroundColor=default;endArrow=classic;" parent="1" source="kcW8va3yGz1REJU7Dl8P-3" target="kcW8va3yGz1REJU7Dl8P-3" edge="1">
          <mxGeometry relative="1" as="geometry">
            <Array as="points">
              <mxPoint x="377" y="360" />
              <mxPoint x="413" y="360" />
            </Array>
          </mxGeometry>
        </mxCell>
        <mxCell id="kcW8va3yGz1REJU7Dl8P-17" value="d" style="edgeLabel;html=1;align=center;verticalAlign=middle;resizable=0;points=[];fontFamily=Helvetica;fontSize=11;fontColor=default;labelBackgroundColor=default;" parent="kcW8va3yGz1REJU7Dl8P-16" vertex="1" connectable="0">
          <mxGeometry x="0.103" y="-2" relative="1" as="geometry">
            <mxPoint as="offset" />
          </mxGeometry>
        </mxCell>
        <mxCell id="PRvzL6H3J8Ta-jQoMKOc-2" style="edgeStyle=orthogonalEdgeStyle;rounded=0;orthogonalLoop=1;jettySize=auto;html=1;exitX=0.5;exitY=1;exitDx=0;exitDy=0;entryX=0.5;entryY=0;entryDx=0;entryDy=0;" edge="1" parent="1" source="PRvzL6H3J8Ta-jQoMKOc-1" target="G07PlgcpJv_h16Tnx_Fq-4">
          <mxGeometry relative="1" as="geometry" />
        </mxCell>
        <mxCell id="PRvzL6H3J8Ta-jQoMKOc-6" value="d" style="edgeLabel;html=1;align=center;verticalAlign=middle;resizable=0;points=[];" vertex="1" connectable="0" parent="PRvzL6H3J8Ta-jQoMKOc-2">
          <mxGeometry x="0.0762" y="-1" relative="1" as="geometry">
            <mxPoint as="offset" />
          </mxGeometry>
        </mxCell>
        <mxCell id="PRvzL6H3J8Ta-jQoMKOc-3" style="rounded=0;orthogonalLoop=1;jettySize=auto;html=1;exitX=1;exitY=1;exitDx=0;exitDy=0;" edge="1" parent="1" source="PRvzL6H3J8Ta-jQoMKOc-1" target="G07PlgcpJv_h16Tnx_Fq-1">
          <mxGeometry relative="1" as="geometry" />
        </mxCell>
        <mxCell id="PRvzL6H3J8Ta-jQoMKOc-7" value="m" style="edgeLabel;html=1;align=center;verticalAlign=middle;resizable=0;points=[];" vertex="1" connectable="0" parent="PRvzL6H3J8Ta-jQoMKOc-3">
          <mxGeometry x="-0.2563" y="3" relative="1" as="geometry">
            <mxPoint as="offset" />
          </mxGeometry>
        </mxCell>
        <mxCell id="PRvzL6H3J8Ta-jQoMKOc-4" style="edgeStyle=orthogonalEdgeStyle;rounded=0;orthogonalLoop=1;jettySize=auto;html=1;exitX=1;exitY=0.5;exitDx=0;exitDy=0;" edge="1" parent="1" source="PRvzL6H3J8Ta-jQoMKOc-1" target="G07PlgcpJv_h16Tnx_Fq-3">
          <mxGeometry relative="1" as="geometry" />
        </mxCell>
        <mxCell id="PRvzL6H3J8Ta-jQoMKOc-5" value="t" style="edgeLabel;html=1;align=center;verticalAlign=middle;resizable=0;points=[];" vertex="1" connectable="0" parent="PRvzL6H3J8Ta-jQoMKOc-4">
          <mxGeometry x="-0.0821" y="3" relative="1" as="geometry">
            <mxPoint as="offset" />
          </mxGeometry>
        </mxCell>
        <mxCell id="PRvzL6H3J8Ta-jQoMKOc-1" value="0" style="ellipse;whiteSpace=wrap;html=1;aspect=fixed;" vertex="1" parent="1">
          <mxGeometry x="190" y="160" width="50" height="50" as="geometry" />
        </mxCell>
      </root>
    </mxGraphModel>
  </diagram>
</mxfile>
